<svg width="486" height="538" viewBox="0 0 486 538" fill="none" xmlns="http://www.w3.org/2000/svg">
<mask id="path-1-inside-1_70_2" fill="white">
<path d="M0 16.0326C0 7.17801 7.17803 0 16.0326 0H205.913C214.768 0 221.946 7.17803 221.946 16.0326V195.386C221.946 204.241 214.768 211.419 205.913 211.419H16.0326C7.17804 211.419 0 204.241 0 195.386V16.0326Z"/>
</mask>
<path d="M0 16.0326C0 7.17801 7.17803 0 16.0326 0H205.913C214.768 0 221.946 7.17803 221.946 16.0326V195.386C221.946 204.241 214.768 211.419 205.913 211.419H16.0326C7.17804 211.419 0 204.241 0 195.386V16.0326Z" fill="#4B4B4B"/>
<path d="M0 16.0326C0 2.11829 11.2798 -9.16147 25.1941 -9.16147H196.752C210.666 -9.16147 221.946 2.11829 221.946 16.0326V16.0326C221.946 12.2378 214.768 9.16147 205.913 9.16147H16.0326C7.17803 9.16147 0 12.2378 0 16.0326V16.0326ZM221.946 211.419H0H221.946ZM0 211.419V0V211.419ZM221.946 0V211.419V0Z" fill="url(#paint0_linear_70_2)" mask="url(#path-1-inside-1_70_2)"/>
<path d="M82.7659 100.931C80.1728 100.931 78.0709 100.126 76.4603 98.5151C74.8657 96.8883 74.0685 94.6737 74.0685 91.8712C74.0685 89.0365 74.8657 86.8218 76.4603 85.2273C78.0548 83.6166 80.2614 82.8113 83.08 82.8113C84.2397 82.8113 85.2947 82.8919 86.2449 83.0529C86.6315 83.1173 86.9536 83.3106 87.2113 83.6327C87.469 83.9388 87.5979 84.2931 87.5979 84.6958V84.7924C87.5979 85.1306 87.461 85.4045 87.1872 85.6138C86.9134 85.8232 86.6073 85.8876 86.2691 85.8071C85.3188 85.5977 84.3766 85.493 83.4424 85.493C81.4935 85.493 80.0117 86.0326 78.997 87.1117C77.9984 88.1748 77.4991 89.7612 77.4991 91.8712C77.4991 93.9167 77.9904 95.4951 78.9729 96.6065C79.9715 97.7017 81.3164 98.2493 83.0075 98.2493C83.7001 98.2493 84.3846 98.1527 85.0611 97.9594C85.19 97.9272 85.2544 97.8386 85.2544 97.6937V92.91C85.2544 92.7651 85.19 92.6926 85.0611 92.6926H82.0412C81.6868 92.6926 81.3808 92.5718 81.1231 92.3302C80.8815 92.0725 80.7607 91.7665 80.7607 91.4122C80.7607 91.0417 80.8815 90.7357 81.1231 90.4941C81.3808 90.2364 81.6868 90.1075 82.0412 90.1075H87.1147C87.4851 90.1075 87.8073 90.2444 88.0811 90.5182C88.3549 90.7921 88.4918 91.1142 88.4918 91.4846V98.5151C88.4918 98.9339 88.371 99.3124 88.1294 99.6506C87.8878 99.9888 87.5737 100.214 87.1872 100.327C85.8181 100.73 84.3444 100.931 82.7659 100.931ZM94.0504 100.689C93.6799 100.689 93.3578 100.553 93.084 100.279C92.8102 100.005 92.6733 99.6828 92.6733 99.3124V83.9468C92.6733 83.5764 92.8102 83.2542 93.084 82.9804C93.3578 82.7066 93.6799 82.5697 94.0504 82.5697H94.6785C95.049 82.5697 95.3711 82.7066 95.6449 82.9804C95.9187 83.2542 96.0556 83.5764 96.0556 83.9468V99.3124C96.0556 99.6828 95.9187 100.005 95.6449 100.279C95.3711 100.553 95.049 100.689 94.6785 100.689H94.0504ZM107.505 91.243C107.038 90.5666 106.329 90.2283 105.379 90.2283C104.428 90.2283 103.712 90.5666 103.228 91.243C102.761 91.9034 102.528 92.9584 102.528 94.4079C102.528 95.8575 102.761 96.9205 103.228 97.597C103.712 98.2574 104.428 98.5876 105.379 98.5876C106.329 98.5876 107.038 98.2574 107.505 97.597C107.988 96.9205 108.229 95.8575 108.229 94.4079C108.229 92.9584 107.988 91.9034 107.505 91.243ZM109.872 99.2399C108.809 100.367 107.311 100.931 105.379 100.931C103.446 100.931 101.94 100.367 100.861 99.2399C99.7977 98.0963 99.2662 96.4857 99.2662 94.4079C99.2662 92.3302 99.7977 90.7276 100.861 89.6002C101.94 88.4566 103.446 87.8848 105.379 87.8848C107.311 87.8848 108.809 88.4566 109.872 89.6002C110.951 90.7276 111.491 92.3302 111.491 94.4079C111.491 96.4857 110.951 98.0963 109.872 99.2399ZM117.295 92.7651V96.0508C117.295 96.6951 117.568 97.2668 118.116 97.7661C118.664 98.2654 119.316 98.5151 120.073 98.5151C120.927 98.5151 121.603 98.1769 122.102 97.5004C122.602 96.8078 122.851 95.777 122.851 94.4079C122.851 91.6699 121.925 90.3008 120.073 90.3008C119.316 90.3008 118.664 90.5505 118.116 91.0498C117.568 91.5491 117.295 92.1208 117.295 92.7651ZM115.483 100.689C115.112 100.689 114.79 100.553 114.516 100.279C114.242 100.005 114.106 99.6828 114.106 99.3124V83.9468C114.106 83.5764 114.242 83.2542 114.516 82.9804C114.79 82.7066 115.112 82.5697 115.483 82.5697H115.966C116.336 82.5697 116.658 82.7066 116.932 82.9804C117.206 83.2542 117.343 83.5764 117.343 83.9468V89.3827C117.343 89.3988 117.351 89.4069 117.367 89.4069C117.383 89.4069 117.399 89.3988 117.415 89.3827C118.462 88.3841 119.67 87.8848 121.039 87.8848C122.553 87.8848 123.761 88.4566 124.663 89.6002C125.581 90.7276 126.04 92.3302 126.04 94.4079C126.04 96.4212 125.565 98.0158 124.615 99.1916C123.665 100.351 122.473 100.931 121.039 100.931C119.574 100.931 118.309 100.335 117.246 99.1432C117.23 99.1271 117.214 99.1191 117.198 99.1191C117.182 99.1191 117.174 99.1271 117.174 99.1432L117.15 99.3124C117.134 99.6989 116.989 100.029 116.715 100.303C116.457 100.561 116.135 100.689 115.748 100.689H115.483ZM134.579 94.6495C132.276 94.6495 131.124 95.3582 131.124 96.7756C131.124 97.291 131.269 97.7098 131.559 98.0319C131.865 98.354 132.252 98.5151 132.719 98.5151C133.637 98.5151 134.378 98.2332 134.941 97.6695C135.505 97.0897 135.787 96.3005 135.787 95.3019V94.867C135.787 94.722 135.714 94.6495 135.569 94.6495H134.579ZM131.849 100.931C130.754 100.931 129.844 100.577 129.119 99.868C128.41 99.1432 128.056 98.2091 128.056 97.0655C128.056 95.6642 128.587 94.5771 129.65 93.804C130.73 93.0308 132.372 92.6443 134.579 92.6443H135.569C135.714 92.6443 135.787 92.5718 135.787 92.4269V92.2336C135.787 91.4927 135.61 90.9773 135.255 90.6874C134.901 90.3813 134.273 90.2283 133.371 90.2283C132.437 90.2283 131.293 90.3974 129.94 90.7357C129.65 90.8162 129.385 90.7679 129.143 90.5907C128.901 90.3974 128.781 90.1478 128.781 89.8418C128.781 89.4713 128.893 89.1411 129.119 88.8512C129.344 88.5452 129.634 88.36 129.989 88.2956C131.213 88.0217 132.364 87.8848 133.443 87.8848C135.505 87.8848 136.947 88.2553 137.768 88.9962C138.589 89.7371 139 91.0337 139 92.8859V99.3124C139 99.6828 138.863 100.005 138.589 100.279C138.332 100.553 138.018 100.689 137.647 100.689H137.381C136.995 100.689 136.665 100.561 136.391 100.303C136.117 100.029 135.972 99.6989 135.956 99.3124V98.9741C135.956 98.958 135.948 98.95 135.932 98.95C135.9 98.95 135.884 98.958 135.884 98.9741C134.901 100.279 133.556 100.931 131.849 100.931ZM144.304 100.689C143.934 100.689 143.612 100.553 143.338 100.279C143.064 100.005 142.927 99.6828 142.927 99.3124V83.9468C142.927 83.5764 143.064 83.2542 143.338 82.9804C143.612 82.7066 143.934 82.5697 144.304 82.5697H144.932C145.303 82.5697 145.625 82.7066 145.899 82.9804C146.173 83.2542 146.31 83.5764 146.31 83.9468V99.3124C146.31 99.6828 146.173 100.005 145.899 100.279C145.625 100.553 145.303 100.689 144.932 100.689H144.304ZM82.0405 121.807V127.05C82.0405 127.179 82.113 127.243 82.2579 127.243H83.4659C86.3329 127.243 87.7663 126.22 87.7663 124.175C87.7663 122.355 86.4376 121.445 83.78 121.445C83.2968 121.445 82.7894 121.485 82.2579 121.566C82.113 121.598 82.0405 121.678 82.0405 121.807ZM80.0836 136.689C79.7131 136.689 79.391 136.553 79.1172 136.279C78.8434 136.005 78.7065 135.683 78.7065 135.312V120.551C78.7065 120.164 78.8353 119.818 79.093 119.512C79.3507 119.206 79.6729 119.037 80.0594 119.005C81.4285 118.876 82.7492 118.811 84.0216 118.811C86.3892 118.811 88.1609 119.254 89.3367 120.14C90.5125 121.01 91.1004 122.242 91.1004 123.837C91.1004 124.98 90.7863 125.987 90.1581 126.856C89.5461 127.726 88.7166 128.338 87.6697 128.693C87.6536 128.693 87.6455 128.701 87.6455 128.717C87.6455 128.749 87.6536 128.765 87.6697 128.765C88.4428 129.248 89.1032 130.199 89.6508 131.616L91.1004 135.409C91.2131 135.715 91.1728 136.005 90.9796 136.279C90.8024 136.553 90.5527 136.689 90.2306 136.689H89.4817C89.0629 136.689 88.6844 136.577 88.3462 136.351C88.0079 136.11 87.7663 135.796 87.6214 135.409L86.2684 131.688C85.9785 130.915 85.6483 130.408 85.2779 130.166C84.9074 129.925 84.2712 129.804 83.3693 129.804H82.2579C82.113 129.804 82.0405 129.876 82.0405 130.021V135.312C82.0405 135.683 81.9036 136.005 81.6298 136.279C81.3721 136.553 81.058 136.689 80.6876 136.689H80.0836ZM98.427 126.132C97.6055 126.132 96.9693 126.365 96.5184 126.832C96.0835 127.283 95.8097 128.016 95.6969 129.031C95.6969 129.16 95.7613 129.224 95.8902 129.224H100.625C100.754 129.224 100.819 129.16 100.819 129.031C100.754 127.098 99.9571 126.132 98.427 126.132ZM99.031 136.931C96.921 136.931 95.2943 136.383 94.1507 135.288C93.0233 134.177 92.4595 132.55 92.4595 130.408C92.4595 128.282 92.9669 126.663 93.9816 125.552C94.9963 124.441 96.462 123.885 98.3786 123.885C101.954 123.885 103.79 125.914 103.887 129.973C103.903 130.36 103.766 130.682 103.476 130.939C103.186 131.197 102.848 131.326 102.462 131.326H95.866C95.7211 131.326 95.6647 131.398 95.6969 131.543C95.8097 132.623 96.164 133.412 96.7599 133.911C97.372 134.394 98.2578 134.636 99.4175 134.636C100.142 134.636 100.948 134.515 101.833 134.273C102.123 134.193 102.389 134.241 102.631 134.418C102.888 134.596 103.017 134.837 103.017 135.143C103.017 135.514 102.905 135.844 102.679 136.134C102.47 136.408 102.188 136.577 101.833 136.641C100.932 136.834 99.9973 136.931 99.031 136.931ZM112.413 130.65C110.11 130.65 108.958 131.358 108.958 132.776C108.958 133.291 109.103 133.71 109.393 134.032C109.699 134.354 110.086 134.515 110.553 134.515C111.471 134.515 112.212 134.233 112.775 133.669C113.339 133.09 113.621 132.3 113.621 131.302V130.867C113.621 130.722 113.548 130.65 113.403 130.65H112.413ZM109.683 136.931C108.588 136.931 107.678 136.577 106.953 135.868C106.244 135.143 105.89 134.209 105.89 133.066C105.89 131.664 106.421 130.577 107.484 129.804C108.564 129.031 110.206 128.644 112.413 128.644H113.403C113.548 128.644 113.621 128.572 113.621 128.427V128.234C113.621 127.493 113.444 126.977 113.089 126.687C112.735 126.381 112.107 126.228 111.205 126.228C110.271 126.228 109.127 126.397 107.774 126.736C107.484 126.816 107.219 126.768 106.977 126.591C106.735 126.397 106.615 126.148 106.615 125.842C106.615 125.471 106.727 125.141 106.953 124.851C107.178 124.545 107.468 124.36 107.823 124.296C109.047 124.022 110.198 123.885 111.277 123.885C113.339 123.885 114.781 124.255 115.602 124.996C116.423 125.737 116.834 127.034 116.834 128.886V135.312C116.834 135.683 116.697 136.005 116.423 136.279C116.166 136.553 115.852 136.689 115.481 136.689H115.215C114.829 136.689 114.499 136.561 114.225 136.303C113.951 136.029 113.806 135.699 113.79 135.312V134.974C113.79 134.958 113.782 134.95 113.766 134.95C113.734 134.95 113.718 134.958 113.718 134.974C112.735 136.279 111.39 136.931 109.683 136.931ZM125.424 136.931C123.427 136.931 121.889 136.383 120.81 135.288C119.73 134.177 119.191 132.55 119.191 130.408C119.191 128.298 119.706 126.687 120.737 125.576C121.784 124.449 123.266 123.885 125.182 123.885C126.036 123.885 126.858 123.941 127.647 124.054C128.017 124.102 128.323 124.271 128.565 124.561C128.806 124.851 128.927 125.189 128.927 125.576C128.927 125.898 128.798 126.156 128.541 126.349C128.299 126.542 128.017 126.607 127.695 126.542C127.067 126.414 126.366 126.349 125.593 126.349C124.578 126.349 123.821 126.671 123.322 127.316C122.823 127.96 122.573 128.991 122.573 130.408C122.573 131.858 122.839 132.896 123.37 133.525C123.902 134.153 124.723 134.467 125.835 134.467C126.624 134.467 127.308 134.394 127.888 134.249C128.194 134.169 128.468 134.225 128.71 134.418C128.967 134.612 129.096 134.861 129.096 135.167C129.096 135.554 128.976 135.892 128.734 136.182C128.508 136.472 128.21 136.649 127.84 136.714C127.019 136.859 126.213 136.931 125.424 136.931ZM133.779 136.689C133.408 136.689 133.086 136.553 132.812 136.279C132.555 136.005 132.426 135.683 132.426 135.312V119.947C132.426 119.576 132.555 119.254 132.812 118.98C133.086 118.707 133.408 118.57 133.779 118.57H134.262C134.632 118.57 134.955 118.707 135.228 118.98C135.502 119.254 135.639 119.576 135.639 119.947V125.552C135.639 125.568 135.647 125.576 135.663 125.576C135.679 125.576 135.695 125.568 135.712 125.552C136.839 124.441 138.079 123.885 139.432 123.885C140.898 123.885 141.961 124.304 142.621 125.141C143.282 125.979 143.612 127.412 143.612 129.442V135.312C143.612 135.683 143.475 136.005 143.201 136.279C142.927 136.553 142.605 136.689 142.235 136.689H141.848C141.478 136.689 141.155 136.553 140.882 136.279C140.608 136.005 140.471 135.683 140.471 135.312V129.925C140.471 128.523 140.318 127.597 140.012 127.146C139.722 126.695 139.166 126.47 138.345 126.47C137.701 126.47 137.089 126.76 136.509 127.34C135.929 127.92 135.639 128.54 135.639 129.2V135.312C135.639 135.683 135.502 136.005 135.228 136.279C134.955 136.553 134.632 136.689 134.262 136.689H133.779Z" fill="white"/>
<mask id="path-4-inside-2_70_2" fill="white">
<path d="M264.054 87.9676C264.054 79.1131 271.232 71.9351 280.087 71.9351H469.967C478.822 71.9351 486 79.1131 486 87.9676V267.321C486 276.176 478.822 283.354 469.967 283.354H280.087C271.232 283.354 264.054 276.176 264.054 267.321V87.9676Z"/>
</mask>
<path d="M264.054 87.9676C264.054 79.1131 271.232 71.9351 280.087 71.9351H469.967C478.822 71.9351 486 79.1131 486 87.9676V267.321C486 276.176 478.822 283.354 469.967 283.354H280.087C271.232 283.354 264.054 276.176 264.054 267.321V87.9676Z" fill="#4B4B4B"/>
<path d="M264.054 87.9676C264.054 74.0533 275.334 62.7736 289.248 62.7736H460.806C474.72 62.7736 486 74.0533 486 87.9676V87.9676C486 84.1728 478.822 81.0965 469.967 81.0965H280.087C271.232 81.0965 264.054 84.1728 264.054 87.9676V87.9676ZM486 283.354H264.054H486ZM264.054 283.354V71.9351V283.354ZM486 71.9351V283.354V71.9351Z" fill="url(#paint1_linear_70_2)" mask="url(#path-4-inside-2_70_2)"/>
<path d="M308.051 169.116C307.681 169.116 307.358 168.979 307.085 168.705C306.811 168.431 306.674 168.109 306.674 167.739V152.856C306.674 152.486 306.811 152.164 307.085 151.89C307.358 151.616 307.681 151.479 308.051 151.479H309.017C309.388 151.479 309.71 151.616 309.984 151.89C310.258 152.164 310.395 152.486 310.395 152.856V167.739C310.395 168.109 310.258 168.431 309.984 168.705C309.71 168.979 309.388 169.116 309.017 169.116H308.051ZM315.82 169.116C315.449 169.116 315.127 168.979 314.854 168.705C314.58 168.431 314.443 168.109 314.443 167.739V157.93C314.443 157.559 314.58 157.237 314.854 156.963C315.127 156.69 315.449 156.553 315.82 156.553H316.134C316.521 156.553 316.843 156.69 317.1 156.963C317.374 157.221 317.519 157.543 317.535 157.93V158.099C317.535 158.115 317.543 158.123 317.559 158.123C317.576 158.123 317.592 158.115 317.608 158.099C318.703 156.907 319.983 156.311 321.449 156.311C322.915 156.311 323.978 156.73 324.638 157.567C325.315 158.389 325.653 159.766 325.653 161.699V167.739C325.653 168.109 325.516 168.431 325.242 168.705C324.968 168.979 324.646 169.116 324.276 169.116H323.865C323.495 169.116 323.172 168.979 322.899 168.705C322.641 168.431 322.512 168.109 322.512 167.739V161.94C322.512 160.732 322.351 159.911 322.029 159.476C321.723 159.025 321.167 158.8 320.362 158.8C319.702 158.8 319.09 159.081 318.526 159.645C317.962 160.209 317.68 160.813 317.68 161.457V167.739C317.68 168.109 317.543 168.431 317.269 168.705C316.996 168.979 316.674 169.116 316.303 169.116H315.82ZM329.063 159.379C328.741 159.379 328.467 159.267 328.242 159.041C328.016 158.8 327.903 158.518 327.903 158.196C327.903 157.873 328.016 157.6 328.242 157.374C328.467 157.149 328.741 157.036 329.063 157.036H330.343C330.488 157.036 330.561 156.963 330.561 156.818V156.239C330.561 154.499 330.939 153.235 331.696 152.446C332.453 151.64 333.653 151.238 335.296 151.238C335.844 151.238 336.319 151.27 336.722 151.334C337.06 151.383 337.334 151.552 337.543 151.842C337.768 152.115 337.881 152.429 337.881 152.784C337.881 153.074 337.76 153.307 337.519 153.484C337.277 153.645 337.011 153.702 336.722 153.654C336.399 153.621 336.166 153.605 336.021 153.605C335.2 153.605 334.636 153.782 334.33 154.137C334.04 154.475 333.895 155.143 333.895 156.142V156.818C333.895 156.963 333.967 157.036 334.112 157.036H336.48C336.802 157.036 337.076 157.149 337.301 157.374C337.527 157.6 337.64 157.873 337.64 158.196C337.64 158.518 337.527 158.8 337.301 159.041C337.076 159.267 336.802 159.379 336.48 159.379H334.112C333.967 159.379 333.895 159.444 333.895 159.573V167.739C333.895 168.109 333.758 168.431 333.484 168.705C333.21 168.979 332.888 169.116 332.518 169.116H331.914C331.543 169.116 331.221 168.979 330.947 168.705C330.69 168.431 330.561 168.109 330.561 167.739V159.573C330.561 159.444 330.488 159.379 330.343 159.379H329.063ZM347.529 159.669C347.062 158.993 346.353 158.655 345.403 158.655C344.453 158.655 343.736 158.993 343.253 159.669C342.786 160.33 342.552 161.385 342.552 162.834C342.552 164.284 342.786 165.347 343.253 166.023C343.736 166.684 344.453 167.014 345.403 167.014C346.353 167.014 347.062 166.684 347.529 166.023C348.012 165.347 348.254 164.284 348.254 162.834C348.254 161.385 348.012 160.33 347.529 159.669ZM349.897 167.666C348.833 168.794 347.336 169.357 345.403 169.357C343.47 169.357 341.964 168.794 340.885 167.666C339.822 166.523 339.29 164.912 339.29 162.834C339.29 160.756 339.822 159.154 340.885 158.026C341.964 156.883 343.47 156.311 345.403 156.311C347.336 156.311 348.833 156.883 349.897 158.026C350.976 159.154 351.515 160.756 351.515 162.834C351.515 164.912 350.976 166.523 349.897 167.666ZM355.386 169.116C355.016 169.116 354.693 168.979 354.42 168.705C354.146 168.431 354.009 168.109 354.009 167.739V157.93C354.009 157.559 354.146 157.237 354.42 156.963C354.693 156.69 355.016 156.553 355.386 156.553H355.869C356.24 156.553 356.562 156.69 356.836 156.963C357.109 157.237 357.246 157.559 357.246 157.93V158.945C357.246 158.961 357.254 158.969 357.27 158.969C357.303 158.969 357.319 158.961 357.319 158.945C357.786 158.3 358.398 157.777 359.155 157.374C359.912 156.955 360.741 156.698 361.643 156.601C361.982 156.569 362.272 156.682 362.513 156.939C362.755 157.181 362.876 157.471 362.876 157.809C362.876 158.147 362.755 158.437 362.513 158.679C362.272 158.92 361.982 159.057 361.643 159.089C358.793 159.315 357.367 160.765 357.367 163.438V167.739C357.367 168.109 357.23 168.431 356.956 168.705C356.683 168.979 356.36 169.116 355.99 169.116H355.386ZM367.088 169.116C366.717 169.116 366.395 168.979 366.121 168.705C365.864 168.431 365.735 168.109 365.735 167.739V157.93C365.735 157.559 365.864 157.237 366.121 156.963C366.395 156.69 366.717 156.553 367.088 156.553H367.426C367.796 156.553 368.111 156.682 368.368 156.939C368.642 157.197 368.787 157.511 368.803 157.881V158.051C368.803 158.067 368.811 158.075 368.827 158.075C368.859 158.075 368.876 158.067 368.876 158.051C369.826 156.891 370.897 156.311 372.089 156.311C372.814 156.311 373.393 156.448 373.828 156.722C374.279 156.996 374.674 157.479 375.012 158.171C375.012 158.188 375.028 158.196 375.06 158.196C375.077 158.196 375.093 158.188 375.109 158.171C376.123 156.931 377.267 156.311 378.539 156.311C379.876 156.311 380.835 156.674 381.414 157.398C382.01 158.123 382.308 159.371 382.308 161.143V167.739C382.308 168.109 382.171 168.431 381.898 168.705C381.64 168.979 381.326 169.116 380.955 169.116H380.545C380.174 169.116 379.852 168.979 379.578 168.705C379.305 168.431 379.168 168.109 379.168 167.739V161.626C379.168 160.45 379.055 159.677 378.829 159.307C378.604 158.936 378.169 158.751 377.525 158.751C377.106 158.751 376.687 158.945 376.268 159.331C375.85 159.718 375.64 160.104 375.64 160.491V167.739C375.64 168.109 375.503 168.431 375.23 168.705C374.956 168.979 374.634 169.116 374.263 169.116H373.852C373.482 169.116 373.16 168.979 372.886 168.705C372.628 168.431 372.5 168.109 372.5 167.739V161.626C372.5 160.467 372.379 159.702 372.137 159.331C371.912 158.945 371.477 158.751 370.833 158.751C370.414 158.751 369.995 158.945 369.576 159.331C369.157 159.718 368.948 160.104 368.948 160.491V167.739C368.948 168.109 368.811 168.431 368.537 168.705C368.264 168.979 367.941 169.116 367.571 169.116H367.088ZM391.449 163.076C389.146 163.076 387.994 163.784 387.994 165.202C387.994 165.717 388.139 166.136 388.429 166.458C388.735 166.78 389.121 166.941 389.589 166.941C390.507 166.941 391.247 166.659 391.811 166.096C392.375 165.516 392.657 164.727 392.657 163.728V163.293C392.657 163.148 392.584 163.076 392.439 163.076H391.449ZM388.719 169.357C387.624 169.357 386.714 169.003 385.989 168.294C385.28 167.57 384.926 166.635 384.926 165.492C384.926 164.091 385.457 163.003 386.52 162.23C387.599 161.457 389.242 161.071 391.449 161.071H392.439C392.584 161.071 392.657 160.998 392.657 160.853V160.66C392.657 159.919 392.48 159.404 392.125 159.114C391.771 158.808 391.143 158.655 390.241 158.655C389.307 158.655 388.163 158.824 386.81 159.162C386.52 159.242 386.254 159.194 386.013 159.017C385.771 158.824 385.651 158.574 385.651 158.268C385.651 157.898 385.763 157.567 385.989 157.277C386.214 156.971 386.504 156.786 386.858 156.722C388.083 156.448 389.234 156.311 390.313 156.311C392.375 156.311 393.816 156.682 394.638 157.422C395.459 158.163 395.87 159.46 395.87 161.312V167.739C395.87 168.109 395.733 168.431 395.459 168.705C395.202 168.979 394.888 169.116 394.517 169.116H394.251C393.865 169.116 393.535 168.987 393.261 168.729C392.987 168.455 392.842 168.125 392.826 167.739V167.4C392.826 167.384 392.818 167.376 392.802 167.376C392.77 167.376 392.753 167.384 392.753 167.4C391.771 168.705 390.426 169.357 388.719 169.357ZM398.897 159.379C398.574 159.379 398.301 159.267 398.075 159.041C397.85 158.8 397.737 158.518 397.737 158.196C397.737 157.873 397.85 157.6 398.075 157.374C398.301 157.149 398.574 157.036 398.897 157.036H400.056C400.201 157.036 400.274 156.963 400.274 156.818V153.823C400.274 153.452 400.403 153.13 400.66 152.856C400.934 152.582 401.256 152.446 401.627 152.446H402.11C402.48 152.446 402.802 152.582 403.076 152.856C403.35 153.13 403.487 153.452 403.487 153.823V156.818C403.487 156.963 403.559 157.036 403.704 157.036H406.459C406.781 157.036 407.055 157.149 407.28 157.374C407.522 157.6 407.642 157.873 407.642 158.196C407.642 158.518 407.522 158.8 407.28 159.041C407.055 159.267 406.781 159.379 406.459 159.379H403.704C403.559 159.379 403.487 159.444 403.487 159.573V164.453C403.487 165.5 403.6 166.176 403.825 166.482C404.051 166.788 404.518 166.941 405.226 166.941C405.613 166.941 405.903 166.925 406.096 166.893C406.418 166.861 406.7 166.933 406.942 167.11C407.183 167.288 407.304 167.529 407.304 167.835C407.304 168.19 407.183 168.512 406.942 168.802C406.716 169.075 406.434 169.228 406.096 169.261C405.387 169.325 404.856 169.357 404.502 169.357C402.939 169.357 401.844 169.027 401.216 168.367C400.588 167.69 400.274 166.49 400.274 164.767V159.573C400.274 159.444 400.201 159.379 400.056 159.379H398.897ZM413.089 169.116C412.718 169.116 412.396 168.979 412.122 168.705C411.849 168.431 411.712 168.109 411.712 167.739V157.93C411.712 157.559 411.849 157.237 412.122 156.963C412.396 156.69 412.718 156.553 413.089 156.553H413.717C414.087 156.553 414.41 156.69 414.683 156.963C414.957 157.237 415.094 157.559 415.094 157.93V167.739C415.094 168.109 414.957 168.431 414.683 168.705C414.41 168.979 414.087 169.116 413.717 169.116H413.089ZM413.089 153.895C412.718 153.895 412.396 153.758 412.122 153.484C411.849 153.211 411.712 152.888 411.712 152.518V152.373C411.712 152.003 411.849 151.681 412.122 151.407C412.396 151.133 412.718 150.996 413.089 150.996H413.717C414.087 150.996 414.41 151.133 414.683 151.407C414.957 151.681 415.094 152.003 415.094 152.373V152.518C415.094 152.888 414.957 153.211 414.683 153.484C414.41 153.758 414.087 153.895 413.717 153.895H413.089ZM426.543 159.669C426.076 158.993 425.367 158.655 424.417 158.655C423.467 158.655 422.75 158.993 422.267 159.669C421.8 160.33 421.566 161.385 421.566 162.834C421.566 164.284 421.8 165.347 422.267 166.023C422.75 166.684 423.467 167.014 424.417 167.014C425.367 167.014 426.076 166.684 426.543 166.023C427.026 165.347 427.268 164.284 427.268 162.834C427.268 161.385 427.026 160.33 426.543 159.669ZM428.911 167.666C427.848 168.794 426.35 169.357 424.417 169.357C422.484 169.357 420.978 168.794 419.899 167.666C418.836 166.523 418.305 164.912 418.305 162.834C418.305 160.756 418.836 159.154 419.899 158.026C420.978 156.883 422.484 156.311 424.417 156.311C426.35 156.311 427.848 156.883 428.911 158.026C429.99 159.154 430.529 160.756 430.529 162.834C430.529 164.912 429.99 166.523 428.911 167.666ZM434.4 169.116C434.03 169.116 433.708 168.979 433.434 168.705C433.16 168.431 433.023 168.109 433.023 167.739V157.93C433.023 157.559 433.16 157.237 433.434 156.963C433.708 156.69 434.03 156.553 434.4 156.553H434.714C435.101 156.553 435.423 156.69 435.681 156.963C435.955 157.221 436.1 157.543 436.116 157.93V158.099C436.116 158.115 436.124 158.123 436.14 158.123C436.156 158.123 436.172 158.115 436.188 158.099C437.283 156.907 438.564 156.311 440.03 156.311C441.495 156.311 442.558 156.73 443.219 157.567C443.895 158.389 444.233 159.766 444.233 161.699V167.739C444.233 168.109 444.096 168.431 443.823 168.705C443.549 168.979 443.227 169.116 442.856 169.116H442.445C442.075 169.116 441.753 168.979 441.479 168.705C441.221 168.431 441.093 168.109 441.093 167.739V161.94C441.093 160.732 440.931 159.911 440.609 159.476C440.303 159.025 439.748 158.8 438.942 158.8C438.282 158.8 437.67 159.081 437.106 159.645C436.542 160.209 436.261 160.813 436.261 161.457V167.739C436.261 168.109 436.124 168.431 435.85 168.705C435.576 168.979 435.254 169.116 434.884 169.116H434.4ZM355.309 205.116C354.938 205.116 354.616 204.979 354.342 204.705C354.084 204.431 353.956 204.109 353.956 203.739V188.856C353.956 188.486 354.084 188.164 354.342 187.89C354.616 187.616 354.938 187.479 355.309 187.479H355.961C356.331 187.479 356.653 187.616 356.927 187.89C357.201 188.164 357.338 188.486 357.338 188.856V194.341C357.338 194.469 357.402 194.534 357.531 194.534H363.571C363.7 194.534 363.764 194.469 363.764 194.341V188.856C363.764 188.486 363.901 188.164 364.175 187.89C364.449 187.616 364.771 187.479 365.142 187.479H365.794C366.164 187.479 366.478 187.616 366.736 187.89C367.01 188.164 367.147 188.486 367.147 188.856V203.739C367.147 204.109 367.01 204.431 366.736 204.705C366.478 204.979 366.164 205.116 365.794 205.116H365.142C364.771 205.116 364.449 204.979 364.175 204.705C363.901 204.431 363.764 204.109 363.764 203.739V197.336C363.764 197.191 363.7 197.119 363.571 197.119H357.531C357.402 197.119 357.338 197.191 357.338 197.336V203.739C357.338 204.109 357.201 204.431 356.927 204.705C356.653 204.979 356.331 205.116 355.961 205.116H355.309ZM374.663 205.357C373.246 205.357 372.215 204.971 371.57 204.198C370.926 203.408 370.604 202.08 370.604 200.211V193.93C370.604 193.559 370.741 193.237 371.015 192.963C371.289 192.69 371.611 192.553 371.981 192.553H372.368C372.738 192.553 373.06 192.69 373.334 192.963C373.608 193.237 373.745 193.559 373.745 193.93V199.873C373.745 201.001 373.898 201.782 374.204 202.217C374.51 202.651 375.025 202.869 375.75 202.869C376.41 202.869 377.022 202.587 377.586 202.023C378.166 201.46 378.456 200.856 378.456 200.211V193.93C378.456 193.559 378.593 193.237 378.867 192.963C379.14 192.69 379.463 192.553 379.833 192.553H380.316C380.687 192.553 381.001 192.69 381.258 192.963C381.532 193.237 381.669 193.559 381.669 193.93V203.739C381.669 204.109 381.532 204.431 381.258 204.705C381.001 204.979 380.687 205.116 380.316 205.116H380.002C379.616 205.116 379.285 204.987 379.012 204.729C378.754 204.455 378.617 204.125 378.601 203.739L378.577 203.57C378.577 203.553 378.569 203.545 378.553 203.545C378.536 203.545 378.52 203.553 378.504 203.57C377.409 204.761 376.129 205.357 374.663 205.357ZM388.309 197.191V200.477C388.309 201.121 388.583 201.693 389.13 202.192C389.678 202.692 390.33 202.941 391.087 202.941C391.941 202.941 392.617 202.603 393.117 201.927C393.616 201.234 393.865 200.203 393.865 198.834C393.865 196.096 392.939 194.727 391.087 194.727C390.33 194.727 389.678 194.977 389.13 195.476C388.583 195.975 388.309 196.547 388.309 197.191ZM386.497 205.116C386.126 205.116 385.804 204.979 385.53 204.705C385.257 204.431 385.12 204.109 385.12 203.739V188.373C385.12 188.003 385.257 187.681 385.53 187.407C385.804 187.133 386.126 186.996 386.497 186.996H386.98C387.35 186.996 387.673 187.133 387.946 187.407C388.22 187.681 388.357 188.003 388.357 188.373V193.809C388.357 193.825 388.365 193.833 388.381 193.833C388.397 193.833 388.413 193.825 388.43 193.809C389.476 192.81 390.684 192.311 392.053 192.311C393.567 192.311 394.775 192.883 395.677 194.026C396.595 195.154 397.055 196.756 397.055 198.834C397.055 200.848 396.579 202.442 395.629 203.618C394.679 204.777 393.487 205.357 392.053 205.357C390.588 205.357 389.323 204.761 388.26 203.57C388.244 203.553 388.228 203.545 388.212 203.545C388.196 203.545 388.188 203.553 388.188 203.57L388.164 203.739C388.148 204.125 388.003 204.455 387.729 204.729C387.471 204.987 387.149 205.116 386.763 205.116H386.497Z" fill="white"/>
<mask id="path-7-inside-3_70_2" fill="white">
<path d="M0 270.437C0 261.582 7.17803 254.404 16.0326 254.404H205.913C214.768 254.404 221.946 261.582 221.946 270.437V449.791C221.946 458.645 214.768 465.823 205.913 465.823H16.0326C7.17804 465.823 0 458.645 0 449.79V270.437Z"/>
</mask>
<path d="M0 270.437C0 261.582 7.17803 254.404 16.0326 254.404H205.913C214.768 254.404 221.946 261.582 221.946 270.437V449.791C221.946 458.645 214.768 465.823 205.913 465.823H16.0326C7.17804 465.823 0 458.645 0 449.79V270.437Z" fill="#4B4B4B"/>
<path d="M0 270.437C0 256.523 11.2798 245.243 25.1941 245.243H196.752C210.666 245.243 221.946 256.523 221.946 270.437V270.437C221.946 266.642 214.768 263.566 205.913 263.566H16.0326C7.17803 263.566 0 266.642 0 270.437V270.437ZM221.946 465.823H0H221.946ZM0 465.823V254.404V465.823ZM221.946 254.404V465.823V254.404Z" fill="url(#paint2_linear_70_2)" mask="url(#path-7-inside-3_70_2)"/>
<path d="M42.3578 360.357C41.9873 360.357 41.6652 360.221 41.3914 359.947C41.1176 359.673 40.9807 359.351 40.9807 358.98V344.098C40.9807 343.728 41.1176 343.405 41.3914 343.132C41.6652 342.858 41.9873 342.721 42.3578 342.721H50.572C50.9425 342.721 51.2646 342.858 51.5384 343.132C51.8122 343.405 51.9491 343.728 51.9491 344.098C51.9491 344.468 51.8122 344.791 51.5384 345.064C51.2646 345.322 50.9425 345.451 50.572 345.451H44.5804C44.4355 345.451 44.363 345.523 44.363 345.668V349.558C44.363 349.703 44.4355 349.775 44.5804 349.775H50.1613C50.5318 349.775 50.8378 349.904 51.0794 350.162C51.3371 350.42 51.4659 350.726 51.4659 351.08C51.4659 351.434 51.3371 351.74 51.0794 351.998C50.8378 352.24 50.5318 352.361 50.1613 352.361H44.5804C44.4355 352.361 44.363 352.433 44.363 352.578V357.41C44.363 357.555 44.4355 357.627 44.5804 357.627H50.572C50.9425 357.627 51.2646 357.764 51.5384 358.038C51.8122 358.296 51.9491 358.61 51.9491 358.98C51.9491 359.351 51.8122 359.673 51.5384 359.947C51.2646 360.221 50.9425 360.357 50.572 360.357H42.3578ZM56.6497 360.357C56.2792 360.357 55.9571 360.221 55.6833 359.947C55.4095 359.673 55.2726 359.351 55.2726 358.98V349.172C55.2726 348.801 55.4095 348.479 55.6833 348.205C55.9571 347.931 56.2792 347.794 56.6497 347.794H56.9638C57.3503 347.794 57.6724 347.931 57.9302 348.205C58.204 348.463 58.3489 348.785 58.365 349.172V349.341C58.365 349.357 58.3731 349.365 58.3892 349.365C58.4053 349.365 58.4214 349.357 58.4375 349.341C59.5327 348.149 60.8132 347.553 62.2789 347.553C63.7446 347.553 64.8076 347.972 65.468 348.809C66.1444 349.631 66.4827 351.008 66.4827 352.94V358.98C66.4827 359.351 66.3458 359.673 66.072 359.947C65.7981 360.221 65.476 360.357 65.1056 360.357H64.6949C64.3244 360.357 64.0023 360.221 63.7285 359.947C63.4708 359.673 63.3419 359.351 63.3419 358.98V353.182C63.3419 351.974 63.1808 351.153 62.8587 350.718C62.5527 350.267 61.997 350.041 61.1917 350.041C60.5313 350.041 59.9193 350.323 59.3556 350.887C58.7918 351.451 58.51 352.055 58.51 352.699V358.98C58.51 359.351 58.3731 359.673 58.0993 359.947C57.8255 360.221 57.5033 360.357 57.1329 360.357H56.6497ZM74.81 349.969C73.0383 349.969 72.1524 351.257 72.1524 353.834C72.1524 355.171 72.386 356.17 72.8531 356.83C73.3363 357.49 73.9886 357.821 74.81 357.821C75.5348 357.821 76.1549 357.563 76.6703 357.048C77.2018 356.532 77.4676 355.928 77.4676 355.236V352.626C77.4676 351.885 77.2018 351.257 76.6703 350.742C76.1549 350.226 75.5348 349.969 74.81 349.969ZM73.7953 360.237C72.3779 360.237 71.2183 359.673 70.3163 358.545C69.4144 357.402 68.9634 355.832 68.9634 353.834C68.9634 351.837 69.3902 350.291 70.2438 349.196C71.1136 348.1 72.2974 347.553 73.7953 347.553C74.5523 347.553 75.2207 347.69 75.8006 347.964C76.3804 348.237 76.9522 348.696 77.5159 349.341C77.532 349.357 77.5481 349.365 77.5642 349.365C77.5803 349.365 77.5884 349.357 77.5884 349.341V349.172C77.6045 348.785 77.7494 348.463 78.0232 348.205C78.297 347.931 78.6272 347.794 79.0138 347.794H79.2795C79.65 347.794 79.9641 347.931 80.2218 348.205C80.4956 348.479 80.6325 348.801 80.6325 349.172V359.391C80.6325 363.74 78.4581 365.914 74.1094 365.914C73.3363 365.914 72.5229 365.85 71.6693 365.721C71.2827 365.656 70.9606 365.463 70.7029 365.141C70.4613 364.835 70.3405 364.481 70.3405 364.078C70.3405 363.756 70.4693 363.498 70.727 363.305C71.0008 363.128 71.2988 363.079 71.6209 363.16C72.394 363.353 73.1994 363.45 74.0369 363.45C75.2288 363.45 76.0985 363.136 76.6461 362.508C77.1938 361.896 77.4676 360.881 77.4676 359.464V358.715C77.4676 358.698 77.4595 358.69 77.4434 358.69C77.4273 358.69 77.4112 358.698 77.3951 358.715C76.4287 359.729 75.2288 360.237 73.7953 360.237ZM89.8813 354.318C87.5781 354.318 86.4264 355.026 86.4264 356.444C86.4264 356.959 86.5714 357.378 86.8613 357.7C87.1673 358.022 87.5539 358.183 88.021 358.183C88.9391 358.183 89.6799 357.901 90.2437 357.337C90.8074 356.758 91.0893 355.968 91.0893 354.97V354.535C91.0893 354.39 91.0168 354.318 90.8718 354.318H89.8813ZM87.1512 360.599C86.056 360.599 85.146 360.245 84.4212 359.536C83.7125 358.811 83.3582 357.877 83.3582 356.733C83.3582 355.332 83.8897 354.245 84.9527 353.472C86.0318 352.699 87.6747 352.312 89.8813 352.312H90.8718C91.0168 352.312 91.0893 352.24 91.0893 352.095V351.902C91.0893 351.161 90.9121 350.645 90.5577 350.355C90.2034 350.049 89.5753 349.896 88.6733 349.896C87.7391 349.896 86.5956 350.065 85.2426 350.404C84.9527 350.484 84.687 350.436 84.4454 350.259C84.2038 350.065 84.083 349.816 84.083 349.51C84.083 349.139 84.1957 348.809 84.4212 348.519C84.6467 348.213 84.9366 348.028 85.2909 347.964C86.515 347.69 87.6666 347.553 88.7458 347.553C90.8074 347.553 92.2489 347.923 93.0704 348.664C93.8918 349.405 94.3025 350.702 94.3025 352.554V358.98C94.3025 359.351 94.1656 359.673 93.8918 359.947C93.6341 360.221 93.32 360.357 92.9496 360.357H92.6838C92.2972 360.357 91.9671 360.229 91.6933 359.971C91.4194 359.697 91.2745 359.367 91.2584 358.98V358.642C91.2584 358.626 91.2503 358.618 91.2342 358.618C91.202 358.618 91.1859 358.626 91.1859 358.642C90.2034 359.947 88.8585 360.599 87.1512 360.599ZM102.627 349.969C100.855 349.969 99.9691 351.257 99.9691 353.834C99.9691 355.171 100.203 356.17 100.67 356.83C101.153 357.49 101.805 357.821 102.627 357.821C103.351 357.821 103.972 357.563 104.487 357.048C105.018 356.532 105.284 355.928 105.284 355.236V352.626C105.284 351.885 105.018 351.257 104.487 350.742C103.972 350.226 103.351 349.969 102.627 349.969ZM101.612 360.237C100.195 360.237 99.0349 359.673 98.1329 358.545C97.231 357.402 96.78 355.832 96.78 353.834C96.78 351.837 97.2068 350.291 98.0604 349.196C98.9302 348.1 100.114 347.553 101.612 347.553C102.369 347.553 103.037 347.69 103.617 347.964C104.197 348.237 104.769 348.696 105.332 349.341C105.349 349.357 105.365 349.365 105.381 349.365C105.397 349.365 105.405 349.357 105.405 349.341V349.172C105.421 348.785 105.566 348.463 105.84 348.205C106.114 347.931 106.444 347.794 106.83 347.794H107.096C107.467 347.794 107.781 347.931 108.038 348.205C108.312 348.479 108.449 348.801 108.449 349.172V359.391C108.449 363.74 106.275 365.914 101.926 365.914C101.153 365.914 100.34 365.85 99.4859 365.721C99.0993 365.656 98.7772 365.463 98.5195 365.141C98.2779 364.835 98.1571 364.481 98.1571 364.078C98.1571 363.756 98.2859 363.498 98.5436 363.305C98.8174 363.128 99.1154 363.079 99.4375 363.16C100.211 363.353 101.016 363.45 101.854 363.45C103.045 363.45 103.915 363.136 104.463 362.508C105.01 361.896 105.284 360.881 105.284 359.464V358.715C105.284 358.698 105.276 358.69 105.26 358.69C105.244 358.69 105.228 358.698 105.212 358.715C104.245 359.729 103.045 360.237 101.612 360.237ZM116.901 349.8C116.079 349.8 115.443 350.033 114.992 350.5C114.557 350.951 114.283 351.684 114.171 352.699C114.171 352.828 114.235 352.892 114.364 352.892H119.099C119.228 352.892 119.292 352.828 119.292 352.699C119.228 350.766 118.431 349.8 116.901 349.8ZM117.505 360.599C115.395 360.599 113.768 360.051 112.624 358.956C111.497 357.845 110.933 356.218 110.933 354.076C110.933 351.95 111.441 350.331 112.455 349.22C113.47 348.108 114.936 347.553 116.852 347.553C120.428 347.553 122.264 349.582 122.361 353.641C122.377 354.028 122.24 354.35 121.95 354.607C121.66 354.865 121.322 354.994 120.935 354.994H114.34C114.195 354.994 114.138 355.066 114.171 355.211C114.283 356.291 114.638 357.08 115.234 357.579C115.846 358.062 116.732 358.304 117.891 358.304C118.616 358.304 119.421 358.183 120.307 357.941C120.597 357.861 120.863 357.909 121.104 358.086C121.362 358.264 121.491 358.505 121.491 358.811C121.491 359.182 121.378 359.512 121.153 359.802C120.943 360.076 120.661 360.245 120.307 360.309C119.405 360.502 118.471 360.599 117.505 360.599ZM126.32 360.357C125.95 360.357 125.628 360.221 125.354 359.947C125.096 359.673 124.967 359.351 124.967 358.98V349.172C124.967 348.801 125.096 348.479 125.354 348.205C125.628 347.931 125.95 347.794 126.32 347.794H126.659C127.029 347.794 127.343 347.923 127.601 348.181C127.875 348.439 128.02 348.753 128.036 349.123V349.292C128.036 349.308 128.044 349.316 128.06 349.316C128.092 349.316 128.108 349.308 128.108 349.292C129.059 348.133 130.13 347.553 131.321 347.553C132.046 347.553 132.626 347.69 133.061 347.964C133.512 348.237 133.907 348.721 134.245 349.413C134.245 349.429 134.261 349.437 134.293 349.437C134.309 349.437 134.325 349.429 134.341 349.413C135.356 348.173 136.5 347.553 137.772 347.553C139.109 347.553 140.067 347.915 140.647 348.64C141.243 349.365 141.541 350.613 141.541 352.385V358.98C141.541 359.351 141.404 359.673 141.13 359.947C140.873 360.221 140.559 360.357 140.188 360.357H139.777C139.407 360.357 139.085 360.221 138.811 359.947C138.537 359.673 138.4 359.351 138.4 358.98V352.868C138.4 351.692 138.288 350.919 138.062 350.549C137.837 350.178 137.402 349.993 136.757 349.993C136.339 349.993 135.92 350.186 135.501 350.573C135.082 350.959 134.873 351.346 134.873 351.732V358.98C134.873 359.351 134.736 359.673 134.462 359.947C134.188 360.221 133.866 360.357 133.496 360.357H133.085C132.715 360.357 132.393 360.221 132.119 359.947C131.861 359.673 131.732 359.351 131.732 358.98V352.868C131.732 351.708 131.611 350.943 131.37 350.573C131.144 350.186 130.709 349.993 130.065 349.993C129.646 349.993 129.228 350.186 128.809 350.573C128.39 350.959 128.181 351.346 128.181 351.732V358.98C128.181 359.351 128.044 359.673 127.77 359.947C127.496 360.221 127.174 360.357 126.804 360.357H126.32ZM149.884 349.8C149.063 349.8 148.427 350.033 147.976 350.5C147.541 350.951 147.267 351.684 147.154 352.699C147.154 352.828 147.219 352.892 147.347 352.892H152.083C152.212 352.892 152.276 352.828 152.276 352.699C152.212 350.766 151.414 349.8 149.884 349.8ZM150.488 360.599C148.378 360.599 146.751 360.051 145.608 358.956C144.48 357.845 143.917 356.218 143.917 354.076C143.917 351.95 144.424 350.331 145.439 349.22C146.454 348.108 147.919 347.553 149.836 347.553C153.412 347.553 155.248 349.582 155.344 353.641C155.36 354.028 155.223 354.35 154.934 354.607C154.644 354.865 154.305 354.994 153.919 354.994H147.323C147.178 354.994 147.122 355.066 147.154 355.211C147.267 356.291 147.621 357.08 148.217 357.579C148.829 358.062 149.715 358.304 150.875 358.304C151.6 358.304 152.405 358.183 153.291 357.941C153.581 357.861 153.846 357.909 154.088 358.086C154.346 358.264 154.475 358.505 154.475 358.811C154.475 359.182 154.362 359.512 154.136 359.802C153.927 360.076 153.645 360.245 153.291 360.309C152.389 360.502 151.455 360.599 150.488 360.599ZM159.328 360.357C158.958 360.357 158.636 360.221 158.362 359.947C158.088 359.673 157.951 359.351 157.951 358.98V349.172C157.951 348.801 158.088 348.479 158.362 348.205C158.636 347.931 158.958 347.794 159.328 347.794H159.642C160.029 347.794 160.351 347.931 160.609 348.205C160.882 348.463 161.027 348.785 161.043 349.172V349.341C161.043 349.357 161.052 349.365 161.068 349.365C161.084 349.365 161.1 349.357 161.116 349.341C162.211 348.149 163.492 347.553 164.957 347.553C166.423 347.553 167.486 347.972 168.146 348.809C168.823 349.631 169.161 351.008 169.161 352.94V358.98C169.161 359.351 169.024 359.673 168.75 359.947C168.477 360.221 168.154 360.357 167.784 360.357H167.373C167.003 360.357 166.681 360.221 166.407 359.947C166.149 359.673 166.02 359.351 166.02 358.98V353.182C166.02 351.974 165.859 351.153 165.537 350.718C165.231 350.267 164.675 350.041 163.87 350.041C163.21 350.041 162.598 350.323 162.034 350.887C161.47 351.451 161.188 352.055 161.188 352.699V358.98C161.188 359.351 161.052 359.673 160.778 359.947C160.504 360.221 160.182 360.357 159.811 360.357H159.328ZM172.45 350.621C172.128 350.621 171.855 350.508 171.629 350.283C171.404 350.041 171.291 349.759 171.291 349.437C171.291 349.115 171.404 348.841 171.629 348.616C171.855 348.39 172.128 348.278 172.45 348.278H173.61C173.755 348.278 173.828 348.205 173.828 348.06V345.064C173.828 344.694 173.956 344.372 174.214 344.098C174.488 343.824 174.81 343.687 175.18 343.687H175.664C176.034 343.687 176.356 343.824 176.63 344.098C176.904 344.372 177.041 344.694 177.041 345.064V348.06C177.041 348.205 177.113 348.278 177.258 348.278H180.012C180.335 348.278 180.608 348.39 180.834 348.616C181.075 348.841 181.196 349.115 181.196 349.437C181.196 349.759 181.075 350.041 180.834 350.283C180.608 350.508 180.335 350.621 180.012 350.621H177.258C177.113 350.621 177.041 350.686 177.041 350.814V355.695C177.041 356.742 177.154 357.418 177.379 357.724C177.604 358.03 178.072 358.183 178.78 358.183C179.167 358.183 179.457 358.167 179.65 358.135C179.972 358.103 180.254 358.175 180.496 358.352C180.737 358.529 180.858 358.771 180.858 359.077C180.858 359.431 180.737 359.753 180.496 360.043C180.27 360.317 179.988 360.47 179.65 360.502C178.941 360.567 178.41 360.599 178.055 360.599C176.493 360.599 175.398 360.269 174.77 359.608C174.142 358.932 173.828 357.732 173.828 356.009V350.814C173.828 350.686 173.755 350.621 173.61 350.621H172.45Z" fill="white"/>
<mask id="path-10-inside-4_70_2" fill="white">
<path d="M264.054 342.372C264.054 333.517 271.232 326.339 280.087 326.339H469.967C478.822 326.339 486 333.517 486 342.372V521.726C486 530.58 478.822 537.758 469.967 537.758H280.087C271.232 537.758 264.054 530.58 264.054 521.726V342.372Z"/>
</mask>
<path d="M264.054 342.372C264.054 333.517 271.232 326.339 280.087 326.339H469.967C478.822 326.339 486 333.517 486 342.372V521.726C486 530.58 478.822 537.758 469.967 537.758H280.087C271.232 537.758 264.054 530.58 264.054 521.726V342.372Z" fill="#4B4B4B"/>
<path d="M264.054 342.372C264.054 328.458 275.334 317.178 289.248 317.178H460.806C474.72 317.178 486 328.458 486 342.372V342.372C486 338.577 478.822 335.501 469.967 335.501H280.087C271.232 335.501 264.054 338.577 264.054 342.372V342.372ZM486 537.758H264.054H486ZM264.054 537.758V326.339V537.758ZM486 326.339V537.758V326.339Z" fill="url(#paint3_linear_70_2)" mask="url(#path-10-inside-4_70_2)"/>
<path d="M352.701 408.686V420.718C352.701 420.83 352.766 420.903 352.895 420.935C353.41 421.015 353.893 421.056 354.344 421.056C356.229 421.056 357.614 420.548 358.5 419.534C359.385 418.503 359.828 416.812 359.828 414.46C359.828 412.35 359.377 410.804 358.475 409.822C357.573 408.839 356.196 408.348 354.344 408.348C353.893 408.348 353.41 408.388 352.895 408.469C352.766 408.501 352.701 408.573 352.701 408.686ZM350.72 423.592C350.318 423.544 349.987 423.375 349.73 423.085C349.472 422.779 349.343 422.425 349.343 422.022V407.381C349.343 406.979 349.472 406.632 349.73 406.343C349.987 406.036 350.318 405.859 350.72 405.811C351.751 405.698 352.903 405.642 354.175 405.642C357.042 405.642 359.232 406.391 360.746 407.889C362.277 409.387 363.042 411.577 363.042 414.46C363.042 417.553 362.277 419.88 360.746 421.442C359.232 422.989 357.042 423.762 354.175 423.762C352.903 423.762 351.751 423.705 350.72 423.592ZM371.442 417.48C369.138 417.48 367.987 418.189 367.987 419.606C367.987 420.122 368.132 420.54 368.422 420.862C368.728 421.185 369.114 421.346 369.581 421.346C370.499 421.346 371.24 421.064 371.804 420.5C372.368 419.92 372.65 419.131 372.65 418.132V417.698C372.65 417.553 372.577 417.48 372.432 417.48H371.442ZM368.712 423.762C367.616 423.762 366.706 423.407 365.982 422.699C365.273 421.974 364.919 421.04 364.919 419.896C364.919 418.495 365.45 417.408 366.513 416.635C367.592 415.861 369.235 415.475 371.442 415.475H372.432C372.577 415.475 372.65 415.402 372.65 415.257V415.064C372.65 414.323 372.472 413.808 372.118 413.518C371.764 413.212 371.136 413.059 370.234 413.059C369.299 413.059 368.156 413.228 366.803 413.566C366.513 413.647 366.247 413.598 366.006 413.421C365.764 413.228 365.643 412.978 365.643 412.672C365.643 412.302 365.756 411.972 365.982 411.682C366.207 411.376 366.497 411.191 366.851 411.126C368.075 410.852 369.227 410.715 370.306 410.715C372.368 410.715 373.809 411.086 374.631 411.827C375.452 412.568 375.863 413.864 375.863 415.716V422.143C375.863 422.513 375.726 422.835 375.452 423.109C375.194 423.383 374.88 423.52 374.51 423.52H374.244C373.858 423.52 373.527 423.391 373.254 423.133C372.98 422.86 372.835 422.529 372.819 422.143V421.805C372.819 421.789 372.811 421.781 372.795 421.781C372.762 421.781 372.746 421.789 372.746 421.805C371.764 423.109 370.419 423.762 368.712 423.762ZM378.889 413.784C378.567 413.784 378.293 413.671 378.068 413.445C377.842 413.204 377.73 412.922 377.73 412.6C377.73 412.278 377.842 412.004 378.068 411.778C378.293 411.553 378.567 411.44 378.889 411.44H380.049C380.194 411.44 380.266 411.368 380.266 411.223V408.227C380.266 407.857 380.395 407.534 380.653 407.261C380.927 406.987 381.249 406.85 381.619 406.85H382.103C382.473 406.85 382.795 406.987 383.069 407.261C383.343 407.534 383.48 407.857 383.48 408.227V411.223C383.48 411.368 383.552 411.44 383.697 411.44H386.451C386.773 411.44 387.047 411.553 387.273 411.778C387.514 412.004 387.635 412.278 387.635 412.6C387.635 412.922 387.514 413.204 387.273 413.445C387.047 413.671 386.773 413.784 386.451 413.784H383.697C383.552 413.784 383.48 413.848 383.48 413.977V418.857C383.48 419.904 383.592 420.581 383.818 420.887C384.043 421.193 384.511 421.346 385.219 421.346C385.606 421.346 385.896 421.33 386.089 421.297C386.411 421.265 386.693 421.338 386.935 421.515C387.176 421.692 387.297 421.934 387.297 422.24C387.297 422.594 387.176 422.916 386.935 423.206C386.709 423.48 386.427 423.633 386.089 423.665C385.38 423.729 384.849 423.762 384.494 423.762C382.932 423.762 381.837 423.431 381.209 422.771C380.581 422.095 380.266 420.895 380.266 419.171V413.977C380.266 413.848 380.194 413.784 380.049 413.784H378.889ZM396.663 417.48C394.36 417.48 393.208 418.189 393.208 419.606C393.208 420.122 393.353 420.54 393.643 420.862C393.949 421.185 394.336 421.346 394.803 421.346C395.721 421.346 396.462 421.064 397.025 420.5C397.589 419.92 397.871 419.131 397.871 418.132V417.698C397.871 417.553 397.798 417.48 397.654 417.48H396.663ZM393.933 423.762C392.838 423.762 391.928 423.407 391.203 422.699C390.494 421.974 390.14 421.04 390.14 419.896C390.14 418.495 390.671 417.408 391.734 416.635C392.814 415.861 394.456 415.475 396.663 415.475H397.654C397.798 415.475 397.871 415.402 397.871 415.257V415.064C397.871 414.323 397.694 413.808 397.339 413.518C396.985 413.212 396.357 413.059 395.455 413.059C394.521 413.059 393.377 413.228 392.024 413.566C391.734 413.647 391.469 413.598 391.227 413.421C390.985 413.228 390.865 412.978 390.865 412.672C390.865 412.302 390.977 411.972 391.203 411.682C391.428 411.376 391.718 411.191 392.073 411.126C393.297 410.852 394.448 410.715 395.527 410.715C397.589 410.715 399.031 411.086 399.852 411.827C400.673 412.568 401.084 413.864 401.084 415.716V422.143C401.084 422.513 400.947 422.835 400.673 423.109C400.416 423.383 400.102 423.52 399.731 423.52H399.465C399.079 423.52 398.749 423.391 398.475 423.133C398.201 422.86 398.056 422.529 398.04 422.143V421.805C398.04 421.789 398.032 421.781 398.016 421.781C397.984 421.781 397.968 421.789 397.968 421.805C396.985 423.109 395.64 423.762 393.933 423.762ZM324.338 459.762C321.793 459.762 319.772 458.98 318.274 457.418C316.792 455.84 316.051 453.601 316.051 450.702C316.051 447.835 316.768 445.612 318.201 444.034C319.651 442.439 321.672 441.642 324.265 441.642C325.457 441.642 326.456 441.714 327.261 441.859C327.648 441.924 327.97 442.117 328.227 442.439C328.485 442.761 328.614 443.124 328.614 443.526V443.72C328.614 444.058 328.469 444.324 328.179 444.517C327.905 444.71 327.607 444.767 327.285 444.686C326.496 444.477 325.61 444.372 324.628 444.372C323.033 444.372 321.777 444.92 320.859 446.015C319.957 447.11 319.506 448.672 319.506 450.702C319.506 452.715 319.973 454.277 320.907 455.389C321.857 456.484 323.122 457.032 324.7 457.032C325.763 457.032 326.673 456.935 327.43 456.742C327.752 456.661 328.05 456.718 328.324 456.911C328.614 457.104 328.759 457.37 328.759 457.708V457.877C328.759 458.28 328.63 458.642 328.372 458.964C328.131 459.27 327.809 459.456 327.406 459.52C326.488 459.681 325.465 459.762 324.338 459.762ZM339.366 450.074C338.898 449.397 338.19 449.059 337.24 449.059C336.289 449.059 335.572 449.397 335.089 450.074C334.622 450.734 334.389 451.789 334.389 453.239C334.389 454.688 334.622 455.751 335.089 456.428C335.572 457.088 336.289 457.418 337.24 457.418C338.19 457.418 338.898 457.088 339.366 456.428C339.849 455.751 340.09 454.688 340.09 453.239C340.09 451.789 339.849 450.734 339.366 450.074ZM341.733 458.07C340.67 459.198 339.172 459.762 337.24 459.762C335.307 459.762 333.801 459.198 332.722 458.07C331.659 456.927 331.127 455.316 331.127 453.239C331.127 451.161 331.659 449.558 332.722 448.431C333.801 447.287 335.307 446.715 337.24 446.715C339.172 446.715 340.67 447.287 341.733 448.431C342.812 449.558 343.352 451.161 343.352 453.239C343.352 455.316 342.812 456.927 341.733 458.07ZM347.948 459.52C347.577 459.52 347.255 459.383 346.981 459.109C346.707 458.835 346.57 458.513 346.57 458.143V442.777C346.57 442.407 346.707 442.085 346.981 441.811C347.255 441.537 347.577 441.4 347.948 441.4H348.576C348.946 441.4 349.268 441.537 349.542 441.811C349.816 442.085 349.953 442.407 349.953 442.777V458.143C349.953 458.513 349.816 458.835 349.542 459.109C349.268 459.383 348.946 459.52 348.576 459.52H347.948ZM355.639 459.52C355.269 459.52 354.946 459.383 354.673 459.109C354.399 458.835 354.262 458.513 354.262 458.143V442.777C354.262 442.407 354.399 442.085 354.673 441.811C354.946 441.537 355.269 441.4 355.639 441.4H356.267C356.638 441.4 356.96 441.537 357.233 441.811C357.507 442.085 357.644 442.407 357.644 442.777V458.143C357.644 458.513 357.507 458.835 357.233 459.109C356.96 459.383 356.638 459.52 356.267 459.52H355.639ZM366.822 448.962C366.001 448.962 365.365 449.196 364.914 449.663C364.479 450.114 364.205 450.847 364.092 451.861C364.092 451.99 364.157 452.055 364.285 452.055H369.021C369.15 452.055 369.214 451.99 369.214 451.861C369.15 449.929 368.352 448.962 366.822 448.962ZM367.426 459.762C365.316 459.762 363.69 459.214 362.546 458.119C361.419 457.007 360.855 455.381 360.855 453.239C360.855 451.112 361.362 449.494 362.377 448.382C363.392 447.271 364.857 446.715 366.774 446.715C370.35 446.715 372.186 448.745 372.282 452.804C372.298 453.19 372.162 453.512 371.872 453.77C371.582 454.028 371.243 454.157 370.857 454.157H364.261C364.116 454.157 364.06 454.229 364.092 454.374C364.205 455.453 364.559 456.242 365.155 456.742C365.767 457.225 366.653 457.466 367.813 457.466C368.538 457.466 369.343 457.346 370.229 457.104C370.519 457.024 370.784 457.072 371.026 457.249C371.284 457.426 371.413 457.668 371.413 457.974C371.413 458.344 371.3 458.674 371.074 458.964C370.865 459.238 370.583 459.407 370.229 459.472C369.327 459.665 368.393 459.762 367.426 459.762ZM380.513 459.762C378.515 459.762 376.977 459.214 375.898 458.119C374.819 457.007 374.279 455.381 374.279 453.239C374.279 451.129 374.795 449.518 375.826 448.407C376.873 447.279 378.354 446.715 380.271 446.715C381.125 446.715 381.946 446.772 382.735 446.885C383.106 446.933 383.412 447.102 383.653 447.392C383.895 447.682 384.016 448.02 384.016 448.407C384.016 448.729 383.887 448.986 383.629 449.18C383.388 449.373 383.106 449.437 382.784 449.373C382.155 449.244 381.455 449.18 380.682 449.18C379.667 449.18 378.91 449.502 378.411 450.146C377.911 450.79 377.662 451.821 377.662 453.239C377.662 454.688 377.928 455.727 378.459 456.355C378.991 456.983 379.812 457.297 380.923 457.297C381.713 457.297 382.397 457.225 382.977 457.08C383.283 456.999 383.557 457.056 383.798 457.249C384.056 457.442 384.185 457.692 384.185 457.998C384.185 458.385 384.064 458.723 383.822 459.013C383.597 459.303 383.299 459.48 382.929 459.544C382.107 459.689 381.302 459.762 380.513 459.762ZM387.949 449.784C387.627 449.784 387.353 449.671 387.128 449.445C386.902 449.204 386.79 448.922 386.79 448.6C386.79 448.278 386.902 448.004 387.128 447.778C387.353 447.553 387.627 447.44 387.949 447.44H389.109C389.254 447.44 389.326 447.368 389.326 447.223V444.227C389.326 443.857 389.455 443.534 389.713 443.261C389.987 442.987 390.309 442.85 390.679 442.85H391.162C391.533 442.85 391.855 442.987 392.129 443.261C392.403 443.534 392.54 443.857 392.54 444.227V447.223C392.54 447.368 392.612 447.44 392.757 447.44H395.511C395.833 447.44 396.107 447.553 396.333 447.778C396.574 448.004 396.695 448.278 396.695 448.6C396.695 448.922 396.574 449.204 396.333 449.445C396.107 449.671 395.833 449.784 395.511 449.784H392.757C392.612 449.784 392.54 449.848 392.54 449.977V454.857C392.54 455.904 392.652 456.581 392.878 456.887C393.103 457.193 393.57 457.346 394.279 457.346C394.666 457.346 394.956 457.33 395.149 457.297C395.471 457.265 395.753 457.338 395.994 457.515C396.236 457.692 396.357 457.934 396.357 458.24C396.357 458.594 396.236 458.916 395.994 459.206C395.769 459.48 395.487 459.633 395.149 459.665C394.44 459.729 393.909 459.762 393.554 459.762C391.992 459.762 390.897 459.431 390.269 458.771C389.64 458.095 389.326 456.895 389.326 455.171V449.977C389.326 449.848 389.254 449.784 389.109 449.784H387.949ZM402.142 459.52C401.771 459.52 401.449 459.383 401.175 459.109C400.901 458.835 400.764 458.513 400.764 458.143V448.334C400.764 447.964 400.901 447.642 401.175 447.368C401.449 447.094 401.771 446.957 402.142 446.957H402.77C403.14 446.957 403.462 447.094 403.736 447.368C404.01 447.642 404.147 447.964 404.147 448.334V458.143C404.147 458.513 404.01 458.835 403.736 459.109C403.462 459.383 403.14 459.52 402.77 459.52H402.142ZM402.142 444.299C401.771 444.299 401.449 444.163 401.175 443.889C400.901 443.615 400.764 443.293 400.764 442.922V442.777C400.764 442.407 400.901 442.085 401.175 441.811C401.449 441.537 401.771 441.4 402.142 441.4H402.77C403.14 441.4 403.462 441.537 403.736 441.811C404.01 442.085 404.147 442.407 404.147 442.777V442.922C404.147 443.293 404.01 443.615 403.736 443.889C403.462 444.163 403.14 444.299 402.77 444.299H402.142ZM415.596 450.074C415.129 449.397 414.42 449.059 413.47 449.059C412.519 449.059 411.803 449.397 411.32 450.074C410.852 450.734 410.619 451.789 410.619 453.239C410.619 454.688 410.852 455.751 411.32 456.428C411.803 457.088 412.519 457.418 413.47 457.418C414.42 457.418 415.129 457.088 415.596 456.428C416.079 455.751 416.321 454.688 416.321 453.239C416.321 451.789 416.079 450.734 415.596 450.074ZM417.963 458.07C416.9 459.198 415.403 459.762 413.47 459.762C411.537 459.762 410.031 459.198 408.952 458.07C407.889 456.927 407.357 455.316 407.357 453.239C407.357 451.161 407.889 449.558 408.952 448.431C410.031 447.287 411.537 446.715 413.47 446.715C415.403 446.715 416.9 447.287 417.963 448.431C419.043 449.558 419.582 451.161 419.582 453.239C419.582 455.316 419.043 456.927 417.963 458.07ZM423.453 459.52C423.083 459.52 422.76 459.383 422.487 459.109C422.213 458.835 422.076 458.513 422.076 458.143V448.334C422.076 447.964 422.213 447.642 422.487 447.368C422.76 447.094 423.083 446.957 423.453 446.957H423.767C424.154 446.957 424.476 447.094 424.733 447.368C425.007 447.625 425.152 447.948 425.168 448.334V448.503C425.168 448.519 425.176 448.527 425.192 448.527C425.209 448.527 425.225 448.519 425.241 448.503C426.336 447.311 427.617 446.715 429.082 446.715C430.548 446.715 431.611 447.134 432.271 447.972C432.948 448.793 433.286 450.17 433.286 452.103V458.143C433.286 458.513 433.149 458.835 432.875 459.109C432.601 459.383 432.279 459.52 431.909 459.52H431.498C431.128 459.52 430.806 459.383 430.532 459.109C430.274 458.835 430.145 458.513 430.145 458.143V452.345C430.145 451.137 429.984 450.315 429.662 449.88C429.356 449.429 428.8 449.204 427.995 449.204C427.335 449.204 426.723 449.486 426.159 450.049C425.595 450.613 425.313 451.217 425.313 451.861V458.143C425.313 458.513 425.176 458.835 424.903 459.109C424.629 459.383 424.307 459.52 423.936 459.52H423.453Z" fill="white"/>
<mask id="path-13-inside-5_70_2" fill="white">
<path d="M0 270.437C0 261.582 7.17803 254.404 16.0326 254.404H205.913C214.768 254.404 221.946 261.582 221.946 270.437V449.791C221.946 458.645 214.768 465.823 205.913 465.823H16.0326C7.17804 465.823 0 458.645 0 449.79V270.437Z"/>
</mask>
<path d="M0 270.437C0 261.582 7.17803 254.404 16.0326 254.404H205.913C214.768 254.404 221.946 261.582 221.946 270.437V449.791C221.946 458.645 214.768 465.823 205.913 465.823H16.0326C7.17804 465.823 0 458.645 0 449.79V270.437Z" fill="#4B4B4B"/>
<path d="M0 270.437C0 256.523 11.2798 245.243 25.1941 245.243H196.752C210.666 245.243 221.946 256.523 221.946 270.437V270.437C221.946 266.642 214.768 263.566 205.913 263.566H16.0326C7.17803 263.566 0 266.642 0 270.437V270.437ZM221.946 465.823H0H221.946ZM0 465.823V254.404V465.823ZM221.946 254.404V465.823V254.404Z" fill="url(#paint4_linear_70_2)" mask="url(#path-13-inside-5_70_2)"/>
<path d="M42.3578 360.357C41.9873 360.357 41.6652 360.221 41.3914 359.947C41.1176 359.673 40.9807 359.351 40.9807 358.98V344.098C40.9807 343.728 41.1176 343.405 41.3914 343.132C41.6652 342.858 41.9873 342.721 42.3578 342.721H50.572C50.9425 342.721 51.2646 342.858 51.5384 343.132C51.8122 343.405 51.9491 343.728 51.9491 344.098C51.9491 344.468 51.8122 344.791 51.5384 345.064C51.2646 345.322 50.9425 345.451 50.572 345.451H44.5804C44.4355 345.451 44.363 345.523 44.363 345.668V349.558C44.363 349.703 44.4355 349.775 44.5804 349.775H50.1613C50.5318 349.775 50.8378 349.904 51.0794 350.162C51.3371 350.42 51.4659 350.726 51.4659 351.08C51.4659 351.434 51.3371 351.74 51.0794 351.998C50.8378 352.24 50.5318 352.361 50.1613 352.361H44.5804C44.4355 352.361 44.363 352.433 44.363 352.578V357.41C44.363 357.555 44.4355 357.627 44.5804 357.627H50.572C50.9425 357.627 51.2646 357.764 51.5384 358.038C51.8122 358.296 51.9491 358.61 51.9491 358.98C51.9491 359.351 51.8122 359.673 51.5384 359.947C51.2646 360.221 50.9425 360.357 50.572 360.357H42.3578ZM56.6497 360.357C56.2792 360.357 55.9571 360.221 55.6833 359.947C55.4095 359.673 55.2726 359.351 55.2726 358.98V349.172C55.2726 348.801 55.4095 348.479 55.6833 348.205C55.9571 347.931 56.2792 347.794 56.6497 347.794H56.9638C57.3503 347.794 57.6724 347.931 57.9302 348.205C58.204 348.463 58.3489 348.785 58.365 349.172V349.341C58.365 349.357 58.3731 349.365 58.3892 349.365C58.4053 349.365 58.4214 349.357 58.4375 349.341C59.5327 348.149 60.8132 347.553 62.2789 347.553C63.7446 347.553 64.8076 347.972 65.468 348.809C66.1444 349.631 66.4827 351.008 66.4827 352.94V358.98C66.4827 359.351 66.3458 359.673 66.072 359.947C65.7981 360.221 65.476 360.357 65.1056 360.357H64.6949C64.3244 360.357 64.0023 360.221 63.7285 359.947C63.4708 359.673 63.3419 359.351 63.3419 358.98V353.182C63.3419 351.974 63.1808 351.153 62.8587 350.718C62.5527 350.267 61.997 350.041 61.1917 350.041C60.5313 350.041 59.9193 350.323 59.3556 350.887C58.7918 351.451 58.51 352.055 58.51 352.699V358.98C58.51 359.351 58.3731 359.673 58.0993 359.947C57.8255 360.221 57.5033 360.357 57.1329 360.357H56.6497ZM74.81 349.969C73.0383 349.969 72.1524 351.257 72.1524 353.834C72.1524 355.171 72.386 356.17 72.8531 356.83C73.3363 357.49 73.9886 357.821 74.81 357.821C75.5348 357.821 76.1549 357.563 76.6703 357.048C77.2018 356.532 77.4676 355.928 77.4676 355.236V352.626C77.4676 351.885 77.2018 351.257 76.6703 350.742C76.1549 350.226 75.5348 349.969 74.81 349.969ZM73.7953 360.237C72.3779 360.237 71.2183 359.673 70.3163 358.545C69.4144 357.402 68.9634 355.832 68.9634 353.834C68.9634 351.837 69.3902 350.291 70.2438 349.196C71.1136 348.1 72.2974 347.553 73.7953 347.553C74.5523 347.553 75.2207 347.69 75.8006 347.964C76.3804 348.237 76.9522 348.696 77.5159 349.341C77.532 349.357 77.5481 349.365 77.5642 349.365C77.5803 349.365 77.5884 349.357 77.5884 349.341V349.172C77.6045 348.785 77.7494 348.463 78.0232 348.205C78.297 347.931 78.6272 347.794 79.0138 347.794H79.2795C79.65 347.794 79.9641 347.931 80.2218 348.205C80.4956 348.479 80.6325 348.801 80.6325 349.172V359.391C80.6325 363.74 78.4581 365.914 74.1094 365.914C73.3363 365.914 72.5229 365.85 71.6693 365.721C71.2827 365.656 70.9606 365.463 70.7029 365.141C70.4613 364.835 70.3405 364.481 70.3405 364.078C70.3405 363.756 70.4693 363.498 70.727 363.305C71.0008 363.128 71.2988 363.079 71.6209 363.16C72.394 363.353 73.1994 363.45 74.0369 363.45C75.2288 363.45 76.0985 363.136 76.6461 362.508C77.1938 361.896 77.4676 360.881 77.4676 359.464V358.715C77.4676 358.698 77.4595 358.69 77.4434 358.69C77.4273 358.69 77.4112 358.698 77.3951 358.715C76.4287 359.729 75.2288 360.237 73.7953 360.237ZM89.8813 354.318C87.5781 354.318 86.4264 355.026 86.4264 356.444C86.4264 356.959 86.5714 357.378 86.8613 357.7C87.1673 358.022 87.5539 358.183 88.021 358.183C88.9391 358.183 89.6799 357.901 90.2437 357.337C90.8074 356.758 91.0893 355.968 91.0893 354.97V354.535C91.0893 354.39 91.0168 354.318 90.8718 354.318H89.8813ZM87.1512 360.599C86.056 360.599 85.146 360.245 84.4212 359.536C83.7125 358.811 83.3582 357.877 83.3582 356.733C83.3582 355.332 83.8897 354.245 84.9527 353.472C86.0318 352.699 87.6747 352.312 89.8813 352.312H90.8718C91.0168 352.312 91.0893 352.24 91.0893 352.095V351.902C91.0893 351.161 90.9121 350.645 90.5577 350.355C90.2034 350.049 89.5753 349.896 88.6733 349.896C87.7391 349.896 86.5956 350.065 85.2426 350.404C84.9527 350.484 84.687 350.436 84.4454 350.259C84.2038 350.065 84.083 349.816 84.083 349.51C84.083 349.139 84.1957 348.809 84.4212 348.519C84.6467 348.213 84.9366 348.028 85.2909 347.964C86.515 347.69 87.6666 347.553 88.7458 347.553C90.8074 347.553 92.2489 347.923 93.0704 348.664C93.8918 349.405 94.3025 350.702 94.3025 352.554V358.98C94.3025 359.351 94.1656 359.673 93.8918 359.947C93.6341 360.221 93.32 360.357 92.9496 360.357H92.6838C92.2972 360.357 91.9671 360.229 91.6933 359.971C91.4194 359.697 91.2745 359.367 91.2584 358.98V358.642C91.2584 358.626 91.2503 358.618 91.2342 358.618C91.202 358.618 91.1859 358.626 91.1859 358.642C90.2034 359.947 88.8585 360.599 87.1512 360.599ZM102.627 349.969C100.855 349.969 99.9691 351.257 99.9691 353.834C99.9691 355.171 100.203 356.17 100.67 356.83C101.153 357.49 101.805 357.821 102.627 357.821C103.351 357.821 103.972 357.563 104.487 357.048C105.018 356.532 105.284 355.928 105.284 355.236V352.626C105.284 351.885 105.018 351.257 104.487 350.742C103.972 350.226 103.351 349.969 102.627 349.969ZM101.612 360.237C100.195 360.237 99.0349 359.673 98.1329 358.545C97.231 357.402 96.78 355.832 96.78 353.834C96.78 351.837 97.2068 350.291 98.0604 349.196C98.9302 348.1 100.114 347.553 101.612 347.553C102.369 347.553 103.037 347.69 103.617 347.964C104.197 348.237 104.769 348.696 105.332 349.341C105.349 349.357 105.365 349.365 105.381 349.365C105.397 349.365 105.405 349.357 105.405 349.341V349.172C105.421 348.785 105.566 348.463 105.84 348.205C106.114 347.931 106.444 347.794 106.83 347.794H107.096C107.467 347.794 107.781 347.931 108.038 348.205C108.312 348.479 108.449 348.801 108.449 349.172V359.391C108.449 363.74 106.275 365.914 101.926 365.914C101.153 365.914 100.34 365.85 99.4859 365.721C99.0993 365.656 98.7772 365.463 98.5195 365.141C98.2779 364.835 98.1571 364.481 98.1571 364.078C98.1571 363.756 98.2859 363.498 98.5436 363.305C98.8174 363.128 99.1154 363.079 99.4375 363.16C100.211 363.353 101.016 363.45 101.854 363.45C103.045 363.45 103.915 363.136 104.463 362.508C105.01 361.896 105.284 360.881 105.284 359.464V358.715C105.284 358.698 105.276 358.69 105.26 358.69C105.244 358.69 105.228 358.698 105.212 358.715C104.245 359.729 103.045 360.237 101.612 360.237ZM116.901 349.8C116.079 349.8 115.443 350.033 114.992 350.5C114.557 350.951 114.283 351.684 114.171 352.699C114.171 352.828 114.235 352.892 114.364 352.892H119.099C119.228 352.892 119.292 352.828 119.292 352.699C119.228 350.766 118.431 349.8 116.901 349.8ZM117.505 360.599C115.395 360.599 113.768 360.051 112.624 358.956C111.497 357.845 110.933 356.218 110.933 354.076C110.933 351.95 111.441 350.331 112.455 349.22C113.47 348.108 114.936 347.553 116.852 347.553C120.428 347.553 122.264 349.582 122.361 353.641C122.377 354.028 122.24 354.35 121.95 354.607C121.66 354.865 121.322 354.994 120.935 354.994H114.34C114.195 354.994 114.138 355.066 114.171 355.211C114.283 356.291 114.638 357.08 115.234 357.579C115.846 358.062 116.732 358.304 117.891 358.304C118.616 358.304 119.421 358.183 120.307 357.941C120.597 357.861 120.863 357.909 121.104 358.086C121.362 358.264 121.491 358.505 121.491 358.811C121.491 359.182 121.378 359.512 121.153 359.802C120.943 360.076 120.661 360.245 120.307 360.309C119.405 360.502 118.471 360.599 117.505 360.599ZM126.32 360.357C125.95 360.357 125.628 360.221 125.354 359.947C125.096 359.673 124.967 359.351 124.967 358.98V349.172C124.967 348.801 125.096 348.479 125.354 348.205C125.628 347.931 125.95 347.794 126.32 347.794H126.659C127.029 347.794 127.343 347.923 127.601 348.181C127.875 348.439 128.02 348.753 128.036 349.123V349.292C128.036 349.308 128.044 349.316 128.06 349.316C128.092 349.316 128.108 349.308 128.108 349.292C129.059 348.133 130.13 347.553 131.321 347.553C132.046 347.553 132.626 347.69 133.061 347.964C133.512 348.237 133.907 348.721 134.245 349.413C134.245 349.429 134.261 349.437 134.293 349.437C134.309 349.437 134.325 349.429 134.341 349.413C135.356 348.173 136.5 347.553 137.772 347.553C139.109 347.553 140.067 347.915 140.647 348.64C141.243 349.365 141.541 350.613 141.541 352.385V358.98C141.541 359.351 141.404 359.673 141.13 359.947C140.873 360.221 140.559 360.357 140.188 360.357H139.777C139.407 360.357 139.085 360.221 138.811 359.947C138.537 359.673 138.4 359.351 138.4 358.98V352.868C138.4 351.692 138.288 350.919 138.062 350.549C137.837 350.178 137.402 349.993 136.757 349.993C136.339 349.993 135.92 350.186 135.501 350.573C135.082 350.959 134.873 351.346 134.873 351.732V358.98C134.873 359.351 134.736 359.673 134.462 359.947C134.188 360.221 133.866 360.357 133.496 360.357H133.085C132.715 360.357 132.393 360.221 132.119 359.947C131.861 359.673 131.732 359.351 131.732 358.98V352.868C131.732 351.708 131.611 350.943 131.37 350.573C131.144 350.186 130.709 349.993 130.065 349.993C129.646 349.993 129.228 350.186 128.809 350.573C128.39 350.959 128.181 351.346 128.181 351.732V358.98C128.181 359.351 128.044 359.673 127.77 359.947C127.496 360.221 127.174 360.357 126.804 360.357H126.32ZM149.884 349.8C149.063 349.8 148.427 350.033 147.976 350.5C147.541 350.951 147.267 351.684 147.154 352.699C147.154 352.828 147.219 352.892 147.347 352.892H152.083C152.212 352.892 152.276 352.828 152.276 352.699C152.212 350.766 151.414 349.8 149.884 349.8ZM150.488 360.599C148.378 360.599 146.751 360.051 145.608 358.956C144.48 357.845 143.917 356.218 143.917 354.076C143.917 351.95 144.424 350.331 145.439 349.22C146.454 348.108 147.919 347.553 149.836 347.553C153.412 347.553 155.248 349.582 155.344 353.641C155.36 354.028 155.223 354.35 154.934 354.607C154.644 354.865 154.305 354.994 153.919 354.994H147.323C147.178 354.994 147.122 355.066 147.154 355.211C147.267 356.291 147.621 357.08 148.217 357.579C148.829 358.062 149.715 358.304 150.875 358.304C151.6 358.304 152.405 358.183 153.291 357.941C153.581 357.861 153.846 357.909 154.088 358.086C154.346 358.264 154.475 358.505 154.475 358.811C154.475 359.182 154.362 359.512 154.136 359.802C153.927 360.076 153.645 360.245 153.291 360.309C152.389 360.502 151.455 360.599 150.488 360.599ZM159.328 360.357C158.958 360.357 158.636 360.221 158.362 359.947C158.088 359.673 157.951 359.351 157.951 358.98V349.172C157.951 348.801 158.088 348.479 158.362 348.205C158.636 347.931 158.958 347.794 159.328 347.794H159.642C160.029 347.794 160.351 347.931 160.609 348.205C160.882 348.463 161.027 348.785 161.043 349.172V349.341C161.043 349.357 161.052 349.365 161.068 349.365C161.084 349.365 161.1 349.357 161.116 349.341C162.211 348.149 163.492 347.553 164.957 347.553C166.423 347.553 167.486 347.972 168.146 348.809C168.823 349.631 169.161 351.008 169.161 352.94V358.98C169.161 359.351 169.024 359.673 168.75 359.947C168.477 360.221 168.154 360.357 167.784 360.357H167.373C167.003 360.357 166.681 360.221 166.407 359.947C166.149 359.673 166.02 359.351 166.02 358.98V353.182C166.02 351.974 165.859 351.153 165.537 350.718C165.231 350.267 164.675 350.041 163.87 350.041C163.21 350.041 162.598 350.323 162.034 350.887C161.47 351.451 161.188 352.055 161.188 352.699V358.98C161.188 359.351 161.052 359.673 160.778 359.947C160.504 360.221 160.182 360.357 159.811 360.357H159.328ZM172.45 350.621C172.128 350.621 171.855 350.508 171.629 350.283C171.404 350.041 171.291 349.759 171.291 349.437C171.291 349.115 171.404 348.841 171.629 348.616C171.855 348.39 172.128 348.278 172.45 348.278H173.61C173.755 348.278 173.828 348.205 173.828 348.06V345.064C173.828 344.694 173.956 344.372 174.214 344.098C174.488 343.824 174.81 343.687 175.18 343.687H175.664C176.034 343.687 176.356 343.824 176.63 344.098C176.904 344.372 177.041 344.694 177.041 345.064V348.06C177.041 348.205 177.113 348.278 177.258 348.278H180.012C180.335 348.278 180.608 348.39 180.834 348.616C181.075 348.841 181.196 349.115 181.196 349.437C181.196 349.759 181.075 350.041 180.834 350.283C180.608 350.508 180.335 350.621 180.012 350.621H177.258C177.113 350.621 177.041 350.686 177.041 350.814V355.695C177.041 356.742 177.154 357.418 177.379 357.724C177.604 358.03 178.072 358.183 178.78 358.183C179.167 358.183 179.457 358.167 179.65 358.135C179.972 358.103 180.254 358.175 180.496 358.352C180.737 358.529 180.858 358.771 180.858 359.077C180.858 359.431 180.737 359.753 180.496 360.043C180.27 360.317 179.988 360.47 179.65 360.502C178.941 360.567 178.41 360.599 178.055 360.599C176.493 360.599 175.398 360.269 174.77 359.608C174.142 358.932 173.828 357.732 173.828 356.009V350.814C173.828 350.686 173.755 350.621 173.61 350.621H172.45Z" fill="white"/>
<mask id="path-16-inside-6_70_2" fill="white">
<path d="M264.054 342.372C264.054 333.517 271.232 326.339 280.087 326.339H469.967C478.822 326.339 486 333.517 486 342.372V521.726C486 530.58 478.822 537.758 469.967 537.758H280.087C271.232 537.758 264.054 530.58 264.054 521.726V342.372Z"/>
</mask>
<path d="M264.054 342.372C264.054 333.517 271.232 326.339 280.087 326.339H469.967C478.822 326.339 486 333.517 486 342.372V521.726C486 530.58 478.822 537.758 469.967 537.758H280.087C271.232 537.758 264.054 530.58 264.054 521.726V342.372Z" fill="#4B4B4B"/>
<path d="M264.054 342.372C264.054 328.458 275.334 317.178 289.248 317.178H460.806C474.72 317.178 486 328.458 486 342.372V342.372C486 338.577 478.822 335.501 469.967 335.501H280.087C271.232 335.501 264.054 338.577 264.054 342.372V342.372ZM486 537.758H264.054H486ZM264.054 537.758V326.339V537.758ZM486 326.339V537.758V326.339Z" fill="url(#paint5_linear_70_2)" mask="url(#path-16-inside-6_70_2)"/>
<path d="M352.701 408.686V420.718C352.701 420.83 352.766 420.903 352.895 420.935C353.41 421.015 353.893 421.056 354.344 421.056C356.229 421.056 357.614 420.548 358.5 419.534C359.385 418.503 359.828 416.812 359.828 414.46C359.828 412.35 359.377 410.804 358.475 409.822C357.573 408.839 356.196 408.348 354.344 408.348C353.893 408.348 353.41 408.388 352.895 408.469C352.766 408.501 352.701 408.573 352.701 408.686ZM350.72 423.592C350.318 423.544 349.987 423.375 349.73 423.085C349.472 422.779 349.343 422.425 349.343 422.022V407.381C349.343 406.979 349.472 406.632 349.73 406.343C349.987 406.036 350.318 405.859 350.72 405.811C351.751 405.698 352.903 405.642 354.175 405.642C357.042 405.642 359.232 406.391 360.746 407.889C362.277 409.387 363.042 411.577 363.042 414.46C363.042 417.553 362.277 419.88 360.746 421.442C359.232 422.989 357.042 423.762 354.175 423.762C352.903 423.762 351.751 423.705 350.72 423.592ZM371.442 417.48C369.138 417.48 367.987 418.189 367.987 419.606C367.987 420.122 368.132 420.54 368.422 420.862C368.728 421.185 369.114 421.346 369.581 421.346C370.499 421.346 371.24 421.064 371.804 420.5C372.368 419.92 372.65 419.131 372.65 418.132V417.698C372.65 417.553 372.577 417.48 372.432 417.48H371.442ZM368.712 423.762C367.616 423.762 366.706 423.407 365.982 422.699C365.273 421.974 364.919 421.04 364.919 419.896C364.919 418.495 365.45 417.408 366.513 416.635C367.592 415.861 369.235 415.475 371.442 415.475H372.432C372.577 415.475 372.65 415.402 372.65 415.257V415.064C372.65 414.323 372.472 413.808 372.118 413.518C371.764 413.212 371.136 413.059 370.234 413.059C369.299 413.059 368.156 413.228 366.803 413.566C366.513 413.647 366.247 413.598 366.006 413.421C365.764 413.228 365.643 412.978 365.643 412.672C365.643 412.302 365.756 411.972 365.982 411.682C366.207 411.376 366.497 411.191 366.851 411.126C368.075 410.852 369.227 410.715 370.306 410.715C372.368 410.715 373.809 411.086 374.631 411.827C375.452 412.568 375.863 413.864 375.863 415.716V422.143C375.863 422.513 375.726 422.835 375.452 423.109C375.194 423.383 374.88 423.52 374.51 423.52H374.244C373.858 423.52 373.527 423.391 373.254 423.133C372.98 422.86 372.835 422.529 372.819 422.143V421.805C372.819 421.789 372.811 421.781 372.795 421.781C372.762 421.781 372.746 421.789 372.746 421.805C371.764 423.109 370.419 423.762 368.712 423.762ZM378.889 413.784C378.567 413.784 378.293 413.671 378.068 413.445C377.842 413.204 377.73 412.922 377.73 412.6C377.73 412.278 377.842 412.004 378.068 411.778C378.293 411.553 378.567 411.44 378.889 411.44H380.049C380.194 411.44 380.266 411.368 380.266 411.223V408.227C380.266 407.857 380.395 407.534 380.653 407.261C380.927 406.987 381.249 406.85 381.619 406.85H382.103C382.473 406.85 382.795 406.987 383.069 407.261C383.343 407.534 383.48 407.857 383.48 408.227V411.223C383.48 411.368 383.552 411.44 383.697 411.44H386.451C386.773 411.44 387.047 411.553 387.273 411.778C387.514 412.004 387.635 412.278 387.635 412.6C387.635 412.922 387.514 413.204 387.273 413.445C387.047 413.671 386.773 413.784 386.451 413.784H383.697C383.552 413.784 383.48 413.848 383.48 413.977V418.857C383.48 419.904 383.592 420.581 383.818 420.887C384.043 421.193 384.511 421.346 385.219 421.346C385.606 421.346 385.896 421.33 386.089 421.297C386.411 421.265 386.693 421.338 386.935 421.515C387.176 421.692 387.297 421.934 387.297 422.24C387.297 422.594 387.176 422.916 386.935 423.206C386.709 423.48 386.427 423.633 386.089 423.665C385.38 423.729 384.849 423.762 384.494 423.762C382.932 423.762 381.837 423.431 381.209 422.771C380.581 422.095 380.266 420.895 380.266 419.171V413.977C380.266 413.848 380.194 413.784 380.049 413.784H378.889ZM396.663 417.48C394.36 417.48 393.208 418.189 393.208 419.606C393.208 420.122 393.353 420.54 393.643 420.862C393.949 421.185 394.336 421.346 394.803 421.346C395.721 421.346 396.462 421.064 397.025 420.5C397.589 419.92 397.871 419.131 397.871 418.132V417.698C397.871 417.553 397.798 417.48 397.654 417.48H396.663ZM393.933 423.762C392.838 423.762 391.928 423.407 391.203 422.699C390.494 421.974 390.14 421.04 390.14 419.896C390.14 418.495 390.671 417.408 391.734 416.635C392.814 415.861 394.456 415.475 396.663 415.475H397.654C397.798 415.475 397.871 415.402 397.871 415.257V415.064C397.871 414.323 397.694 413.808 397.339 413.518C396.985 413.212 396.357 413.059 395.455 413.059C394.521 413.059 393.377 413.228 392.024 413.566C391.734 413.647 391.469 413.598 391.227 413.421C390.985 413.228 390.865 412.978 390.865 412.672C390.865 412.302 390.977 411.972 391.203 411.682C391.428 411.376 391.718 411.191 392.073 411.126C393.297 410.852 394.448 410.715 395.527 410.715C397.589 410.715 399.031 411.086 399.852 411.827C400.673 412.568 401.084 413.864 401.084 415.716V422.143C401.084 422.513 400.947 422.835 400.673 423.109C400.416 423.383 400.102 423.52 399.731 423.52H399.465C399.079 423.52 398.749 423.391 398.475 423.133C398.201 422.86 398.056 422.529 398.04 422.143V421.805C398.04 421.789 398.032 421.781 398.016 421.781C397.984 421.781 397.968 421.789 397.968 421.805C396.985 423.109 395.64 423.762 393.933 423.762ZM324.338 459.762C321.793 459.762 319.772 458.98 318.274 457.418C316.792 455.84 316.051 453.601 316.051 450.702C316.051 447.835 316.768 445.612 318.201 444.034C319.651 442.439 321.672 441.642 324.265 441.642C325.457 441.642 326.456 441.714 327.261 441.859C327.648 441.924 327.97 442.117 328.227 442.439C328.485 442.761 328.614 443.124 328.614 443.526V443.72C328.614 444.058 328.469 444.324 328.179 444.517C327.905 444.71 327.607 444.767 327.285 444.686C326.496 444.477 325.61 444.372 324.628 444.372C323.033 444.372 321.777 444.92 320.859 446.015C319.957 447.11 319.506 448.672 319.506 450.702C319.506 452.715 319.973 454.277 320.907 455.389C321.857 456.484 323.122 457.032 324.7 457.032C325.763 457.032 326.673 456.935 327.43 456.742C327.752 456.661 328.05 456.718 328.324 456.911C328.614 457.104 328.759 457.37 328.759 457.708V457.877C328.759 458.28 328.63 458.642 328.372 458.964C328.131 459.27 327.809 459.456 327.406 459.52C326.488 459.681 325.465 459.762 324.338 459.762ZM339.366 450.074C338.898 449.397 338.19 449.059 337.24 449.059C336.289 449.059 335.572 449.397 335.089 450.074C334.622 450.734 334.389 451.789 334.389 453.239C334.389 454.688 334.622 455.751 335.089 456.428C335.572 457.088 336.289 457.418 337.24 457.418C338.19 457.418 338.898 457.088 339.366 456.428C339.849 455.751 340.09 454.688 340.09 453.239C340.09 451.789 339.849 450.734 339.366 450.074ZM341.733 458.07C340.67 459.198 339.172 459.762 337.24 459.762C335.307 459.762 333.801 459.198 332.722 458.07C331.659 456.927 331.127 455.316 331.127 453.239C331.127 451.161 331.659 449.558 332.722 448.431C333.801 447.287 335.307 446.715 337.24 446.715C339.172 446.715 340.67 447.287 341.733 448.431C342.812 449.558 343.352 451.161 343.352 453.239C343.352 455.316 342.812 456.927 341.733 458.07ZM347.948 459.52C347.577 459.52 347.255 459.383 346.981 459.109C346.707 458.835 346.57 458.513 346.57 458.143V442.777C346.57 442.407 346.707 442.085 346.981 441.811C347.255 441.537 347.577 441.4 347.948 441.4H348.576C348.946 441.4 349.268 441.537 349.542 441.811C349.816 442.085 349.953 442.407 349.953 442.777V458.143C349.953 458.513 349.816 458.835 349.542 459.109C349.268 459.383 348.946 459.52 348.576 459.52H347.948ZM355.639 459.52C355.269 459.52 354.946 459.383 354.673 459.109C354.399 458.835 354.262 458.513 354.262 458.143V442.777C354.262 442.407 354.399 442.085 354.673 441.811C354.946 441.537 355.269 441.4 355.639 441.4H356.267C356.638 441.4 356.96 441.537 357.233 441.811C357.507 442.085 357.644 442.407 357.644 442.777V458.143C357.644 458.513 357.507 458.835 357.233 459.109C356.96 459.383 356.638 459.52 356.267 459.52H355.639ZM366.822 448.962C366.001 448.962 365.365 449.196 364.914 449.663C364.479 450.114 364.205 450.847 364.092 451.861C364.092 451.99 364.157 452.055 364.285 452.055H369.021C369.15 452.055 369.214 451.99 369.214 451.861C369.15 449.929 368.352 448.962 366.822 448.962ZM367.426 459.762C365.316 459.762 363.69 459.214 362.546 458.119C361.419 457.007 360.855 455.381 360.855 453.239C360.855 451.112 361.362 449.494 362.377 448.382C363.392 447.271 364.857 446.715 366.774 446.715C370.35 446.715 372.186 448.745 372.282 452.804C372.298 453.19 372.162 453.512 371.872 453.77C371.582 454.028 371.243 454.157 370.857 454.157H364.261C364.116 454.157 364.06 454.229 364.092 454.374C364.205 455.453 364.559 456.242 365.155 456.742C365.767 457.225 366.653 457.466 367.813 457.466C368.538 457.466 369.343 457.346 370.229 457.104C370.519 457.024 370.784 457.072 371.026 457.249C371.284 457.426 371.413 457.668 371.413 457.974C371.413 458.344 371.3 458.674 371.074 458.964C370.865 459.238 370.583 459.407 370.229 459.472C369.327 459.665 368.393 459.762 367.426 459.762ZM380.513 459.762C378.515 459.762 376.977 459.214 375.898 458.119C374.819 457.007 374.279 455.381 374.279 453.239C374.279 451.129 374.795 449.518 375.826 448.407C376.873 447.279 378.354 446.715 380.271 446.715C381.125 446.715 381.946 446.772 382.735 446.885C383.106 446.933 383.412 447.102 383.653 447.392C383.895 447.682 384.016 448.02 384.016 448.407C384.016 448.729 383.887 448.986 383.629 449.18C383.388 449.373 383.106 449.437 382.784 449.373C382.155 449.244 381.455 449.18 380.682 449.18C379.667 449.18 378.91 449.502 378.411 450.146C377.911 450.79 377.662 451.821 377.662 453.239C377.662 454.688 377.928 455.727 378.459 456.355C378.991 456.983 379.812 457.297 380.923 457.297C381.713 457.297 382.397 457.225 382.977 457.08C383.283 456.999 383.557 457.056 383.798 457.249C384.056 457.442 384.185 457.692 384.185 457.998C384.185 458.385 384.064 458.723 383.822 459.013C383.597 459.303 383.299 459.48 382.929 459.544C382.107 459.689 381.302 459.762 380.513 459.762ZM387.949 449.784C387.627 449.784 387.353 449.671 387.128 449.445C386.902 449.204 386.79 448.922 386.79 448.6C386.79 448.278 386.902 448.004 387.128 447.778C387.353 447.553 387.627 447.44 387.949 447.44H389.109C389.254 447.44 389.326 447.368 389.326 447.223V444.227C389.326 443.857 389.455 443.534 389.713 443.261C389.987 442.987 390.309 442.85 390.679 442.85H391.162C391.533 442.85 391.855 442.987 392.129 443.261C392.403 443.534 392.54 443.857 392.54 444.227V447.223C392.54 447.368 392.612 447.44 392.757 447.44H395.511C395.833 447.44 396.107 447.553 396.333 447.778C396.574 448.004 396.695 448.278 396.695 448.6C396.695 448.922 396.574 449.204 396.333 449.445C396.107 449.671 395.833 449.784 395.511 449.784H392.757C392.612 449.784 392.54 449.848 392.54 449.977V454.857C392.54 455.904 392.652 456.581 392.878 456.887C393.103 457.193 393.57 457.346 394.279 457.346C394.666 457.346 394.956 457.33 395.149 457.297C395.471 457.265 395.753 457.338 395.994 457.515C396.236 457.692 396.357 457.934 396.357 458.24C396.357 458.594 396.236 458.916 395.994 459.206C395.769 459.48 395.487 459.633 395.149 459.665C394.44 459.729 393.909 459.762 393.554 459.762C391.992 459.762 390.897 459.431 390.269 458.771C389.64 458.095 389.326 456.895 389.326 455.171V449.977C389.326 449.848 389.254 449.784 389.109 449.784H387.949ZM402.142 459.52C401.771 459.52 401.449 459.383 401.175 459.109C400.901 458.835 400.764 458.513 400.764 458.143V448.334C400.764 447.964 400.901 447.642 401.175 447.368C401.449 447.094 401.771 446.957 402.142 446.957H402.77C403.14 446.957 403.462 447.094 403.736 447.368C404.01 447.642 404.147 447.964 404.147 448.334V458.143C404.147 458.513 404.01 458.835 403.736 459.109C403.462 459.383 403.14 459.52 402.77 459.52H402.142ZM402.142 444.299C401.771 444.299 401.449 444.163 401.175 443.889C400.901 443.615 400.764 443.293 400.764 442.922V442.777C400.764 442.407 400.901 442.085 401.175 441.811C401.449 441.537 401.771 441.4 402.142 441.4H402.77C403.14 441.4 403.462 441.537 403.736 441.811C404.01 442.085 404.147 442.407 404.147 442.777V442.922C404.147 443.293 404.01 443.615 403.736 443.889C403.462 444.163 403.14 444.299 402.77 444.299H402.142ZM415.596 450.074C415.129 449.397 414.42 449.059 413.47 449.059C412.519 449.059 411.803 449.397 411.32 450.074C410.852 450.734 410.619 451.789 410.619 453.239C410.619 454.688 410.852 455.751 411.32 456.428C411.803 457.088 412.519 457.418 413.47 457.418C414.42 457.418 415.129 457.088 415.596 456.428C416.079 455.751 416.321 454.688 416.321 453.239C416.321 451.789 416.079 450.734 415.596 450.074ZM417.963 458.07C416.9 459.198 415.403 459.762 413.47 459.762C411.537 459.762 410.031 459.198 408.952 458.07C407.889 456.927 407.357 455.316 407.357 453.239C407.357 451.161 407.889 449.558 408.952 448.431C410.031 447.287 411.537 446.715 413.47 446.715C415.403 446.715 416.9 447.287 417.963 448.431C419.043 449.558 419.582 451.161 419.582 453.239C419.582 455.316 419.043 456.927 417.963 458.07ZM423.453 459.52C423.083 459.52 422.76 459.383 422.487 459.109C422.213 458.835 422.076 458.513 422.076 458.143V448.334C422.076 447.964 422.213 447.642 422.487 447.368C422.76 447.094 423.083 446.957 423.453 446.957H423.767C424.154 446.957 424.476 447.094 424.733 447.368C425.007 447.625 425.152 447.948 425.168 448.334V448.503C425.168 448.519 425.176 448.527 425.192 448.527C425.209 448.527 425.225 448.519 425.241 448.503C426.336 447.311 427.617 446.715 429.082 446.715C430.548 446.715 431.611 447.134 432.271 447.972C432.948 448.793 433.286 450.17 433.286 452.103V458.143C433.286 458.513 433.149 458.835 432.875 459.109C432.601 459.383 432.279 459.52 431.909 459.52H431.498C431.128 459.52 430.806 459.383 430.532 459.109C430.274 458.835 430.145 458.513 430.145 458.143V452.345C430.145 451.137 429.984 450.315 429.662 449.88C429.356 449.429 428.8 449.204 427.995 449.204C427.335 449.204 426.723 449.486 426.159 450.049C425.595 450.613 425.313 451.217 425.313 451.861V458.143C425.313 458.513 425.176 458.835 424.903 459.109C424.629 459.383 424.307 459.52 423.936 459.52H423.453Z" fill="white"/>
<defs>
<linearGradient id="paint0_linear_70_2" x1="-20.6155" y1="-2.51396e-07" x2="250.457" y2="3.42046e-06" gradientUnits="userSpaceOnUse">
<stop stop-color="#F99E33"/>
<stop offset="0.496357" stop-color="#D7596F"/>
</linearGradient>
<linearGradient id="paint1_linear_70_2" x1="243.439" y1="71.9351" x2="514.511" y2="71.9351" gradientUnits="userSpaceOnUse">
<stop stop-color="#33F9D5"/>
<stop offset="0.496357" stop-color="#D4D759"/>
</linearGradient>
<linearGradient id="paint2_linear_70_2" x1="-20.6155" y1="254.404" x2="250.457" y2="254.404" gradientUnits="userSpaceOnUse">
<stop stop-color="#F933F1"/>
<stop offset="0.496357" stop-color="#7959D7"/>
</linearGradient>
<linearGradient id="paint3_linear_70_2" x1="243.439" y1="326.339" x2="514.511" y2="326.339" gradientUnits="userSpaceOnUse">
<stop stop-color="#33F95F"/>
<stop offset="0.496357" stop-color="#59A9D7"/>
</linearGradient>
<linearGradient id="paint4_linear_70_2" x1="-20.6155" y1="254.404" x2="250.457" y2="254.404" gradientUnits="userSpaceOnUse">
<stop stop-color="#F933F1"/>
<stop offset="0.496357" stop-color="#7959D7"/>
</linearGradient>
<linearGradient id="paint5_linear_70_2" x1="243.439" y1="326.339" x2="514.511" y2="326.339" gradientUnits="userSpaceOnUse">
<stop stop-color="#33F95F"/>
<stop offset="0.496357" stop-color="#59A9D7"/>
</linearGradient>
</defs>
</svg>
